<svg xmlns="http://www.w3.org/2000/svg" x="0px" y="0px"
width="26" height="26"
viewBox="0 0 172 172"
style=" fill:#000000;"><g fill="none" fill-rule="nonzero" stroke="none" stroke-width="1" stroke-linecap="butt" stroke-linejoin="miter" stroke-miterlimit="10" stroke-dasharray="" stroke-dashoffset="0" font-family="none" font-weight="none" font-size="none" text-anchor="none" style="mix-blend-mode: normal"><path d="M0,172v-172h172v172z" fill="none"></path><g fill="#ffffff"><path d="M82.54677,117.72077c-8.64631,0 -16.58477,-3.01662 -22.11523,-6.31769l-3.82369,13.502c5.10046,3.44662 14.34215,6.03323 23.27292,6.31769v12.65523h11.31231v-13.52185c15.59246,-2.58662 23.95431,-13.35646 23.95431,-25.56846c0,-12.78092 -7.09169,-20.54077 -22.962,-26.574c-12.04662,-4.88215 -17.15369,-8.18985 -17.15369,-14.07754c0,-4.88215 3.54585,-10.05538 13.46892,-10.05538c9.63862,0 15.87031,3.30769 19.27723,4.88215l3.83031,-13.21092c-4.53815,-2.30215 -10.63092,-4.45215 -19.56169,-4.74323v-12.89338h-11.62323v13.62108c-14.31569,2.58662 -22.82308,12.06646 -22.82308,24.424c0,13.35646 9.63862,20.24969 24.52323,25.70738c10.492,3.87662 15.45354,8.04431 15.45354,14.50754c-0.00662,6.89985 -6.106,11.34538 -15.03015,11.34538z"></path></g></g></svg>