<svg xmlns="http://www.w3.org/2000/svg" x="0px" y="0px"
width="64" height="64"
viewBox="0 0 226 226"
style=" fill:#000000;"><g transform="translate(27.12,27.12) scale(0.76,0.76)"><g fill="none" fill-rule="nonzero" stroke="none" stroke-width="1" stroke-linecap="butt" stroke-linejoin="miter" stroke-miterlimit="10" stroke-dasharray="" stroke-dashoffset="0" font-family="none" font-weight="none" font-size="none" text-anchor="none" style="mix-blend-mode: normal"><path d="M0,226v-226h226v226z" fill="none" stroke="none"></path><g stroke="none"><path d="M135.07031,171.79531h-23.30625h-20.83437c0,13.94844 -2.11875,22.42344 -11.82969,27.01406h67.62344c-9.35781,-4.41406 -11.65312,-13.06562 -11.65312,-27.01406z" fill="#c7d7e2"></path><path d="M146.9,204.28281h-67.8c-2.47187,0 -4.59063,-1.76562 -5.12031,-4.06094c-0.52969,-2.47188 0.70625,-4.94375 2.825,-6.00313c3.53125,-1.58906 6.17969,-2.29531 7.94531,-2.64844c0.17656,0 0.35313,0 0.52969,-0.17656c0.17656,-0.88281 0.17656,-2.47188 0.17656,-5.47344c0,-3.00156 2.29531,-5.29687 5.29688,-5.29687c3.00156,0 5.29688,2.29531 5.29688,5.29688c0,3.00156 -0.17656,5.47344 -0.52969,7.59219h34.42969c-0.35313,-2.11875 -0.52969,-4.59062 -0.52969,-7.59219c0,-3.00156 2.29531,-5.29687 5.29688,-5.29687c3.00156,0 5.29688,2.29531 5.29688,5.29688c0,3.00156 0.17656,4.59062 0.17656,5.47344c0.17656,0 0.35313,0 0.52969,0.17656c1.76563,0.35313 4.59062,0.88281 7.94531,2.64844c2.29531,1.05937 3.35469,3.53125 2.825,6.00313c0,2.29531 -2.11875,4.06094 -4.59062,4.06094z" fill="#454b54"></path><path d="M151.84375,204.28281h-77.6875c-3.00156,0 -5.29687,-2.29531 -5.29687,-5.29687c0,-3.00156 2.29531,-5.29687 5.29688,-5.29687h77.6875c3.00156,0 5.29688,2.29531 5.29688,5.29688c0,3.00156 -2.29531,5.29688 -5.29687,5.29688z" fill="#454b54"></path><path d="M193.86563,32.13438h-161.73125c-4.06094,0 -7.41562,3.35469 -7.41562,7.41562v125.00625c0,4.06094 3.35469,7.41563 7.41562,7.41563h161.90781c4.06094,0 7.41563,-3.35469 7.41563,-7.41563v-125.18281c-0.17656,-4.06094 -3.53125,-7.23906 -7.59219,-7.23906z" fill="#c7d7e2"></path><path d="M193.86563,32.13438h-161.73125c-4.06094,0 -7.41562,3.35469 -7.41562,7.41562v102.93594h176.5625v-103.1125c0,-4.06094 -3.35469,-7.23906 -7.41563,-7.23906z" fill="#ffffff"></path><path d="M201.28125,147.78281h-176.5625c-3.00156,0 -5.29687,-2.29531 -5.29687,-5.29687c0,-3.00156 2.29531,-5.29687 5.29688,-5.29687h176.5625c3.00156,0 5.29688,2.29531 5.29688,5.29688c0,3.00156 -2.29531,5.29688 -5.29687,5.29688z" fill="#454b54"></path><path d="M193.86563,177.09219h-161.73125c-7.0625,0 -12.7125,-5.65 -12.7125,-12.7125v-125.00625c0,-7.0625 5.65,-12.7125 12.7125,-12.7125h161.90781c7.0625,0 12.7125,5.65 12.7125,12.7125v125.00625c-0.17656,7.0625 -5.82656,12.7125 -12.88906,12.7125zM32.13438,37.43125c-1.05938,0 -2.11875,0.88281 -2.11875,2.11875v125.00625c0,1.05937 0.88281,2.11875 2.11875,2.11875h161.90781c1.05937,0 2.11875,-0.88281 2.11875,-2.11875v-125.18281c0,-1.05938 -0.88281,-2.11875 -2.11875,-2.11875h-161.90781z" fill="#454b54"></path><g fill="#ffffff"><path d="M113,151.84375c-2.92538,0 -5.29687,2.37149 -5.29687,5.29688c0,2.92538 2.37149,5.29688 5.29688,5.29688c2.92538,0 5.29688,-2.37149 5.29688,-5.29687c0,-2.92538 -2.37149,-5.29687 -5.29687,-5.29687z"></path></g></g></g></g></svg>