<svg xmlns="http://www.w3.org/2000/svg" x="0px" y="0px"
width="64" height="64"
viewBox="0 0 226 226"
style=" fill:#000000;"><g transform="translate(23.73,23.73) scale(0.79,0.79)"><g fill="none" fill-rule="nonzero" stroke="none" stroke-width="1" stroke-linecap="butt" stroke-linejoin="miter" stroke-miterlimit="10" stroke-dasharray="" stroke-dashoffset="0" font-family="none" font-weight="none" font-size="none" text-anchor="none" style="mix-blend-mode: normal"><path d="M0,226v-226h226v226z" fill="none" stroke="none"></path><g stroke="none"><path d="M112.47031,144.60469h-57.55937c-21.1875,0 -38.49062,-17.12656 -38.49062,-38.31406v0c0,-21.1875 17.30313,-38.49062 38.49063,-38.49062h57.73594" fill="#f7f7fb"></path><path d="M150.96094,173.38438v0c0,-21.1875 -17.30312,-28.77969 -38.49062,-28.77969v0v-76.80469v0c21.1875,0 38.49062,-7.59219 38.49062,-28.77969v0h9.53438v134.36406z" fill="#f37c7e"></path><path d="M112.47031,123.59375h-57.55937c-17.65625,0 -32.31094,-11.82969 -37.07812,-27.72031c-0.35312,1.4125 -0.70625,3.00156 -1.05937,4.59063c0,0 0,0 0,0.17656c0,0.35313 -0.17656,0.70625 -0.17656,1.05938c0,0.52969 -0.17656,1.05938 -0.17656,1.58906c0,0.17656 0,0.52969 0,0.70625c0,0.88281 0,1.58906 0,2.47187c0,21.1875 17.30312,38.31406 38.49062,38.31406h57.55938v0c0,-0.17656 0,-21.1875 0,-21.1875z" fill="#dfe0e4"></path><path d="M156.43437,152.37344c-0.17656,-21.1875 -22.77656,-28.77969 -43.96406,-28.77969v21.01094c21.1875,0 38.66719,7.59219 38.66719,28.77969h5.12031l0.17656,-21.01094z" fill="#dc7173"></path><path d="M54.91094,144.60469c4.76719,0 8.65156,3.88438 8.65156,8.65156v37.07813c0,6.35625 4.94375,11.82969 11.12344,12.00625c6.53281,0.17656 11.82969,-5.12031 11.82969,-11.47656v-37.60781c0,-4.76719 3.88438,-8.65156 8.65156,-8.65156" fill="#e4caa6"></path><path d="M95.16719,144.60469h-40.25625c4.76719,0 8.65156,3.88438 8.65156,8.65156v7.59219h22.95313v-7.59219c0,-4.76719 3.88438,-8.65156 8.65156,-8.65156z" fill="#ceb797"></path><path d="M215.05313,111.5875h-17.30312c-3.00156,0 -5.29687,-2.29531 -5.29687,-5.29687c0,-3.00156 2.29531,-5.29687 5.29688,-5.29687h17.30312c3.00156,0 5.29688,2.29531 5.29688,5.29688c0,3.00156 -2.29531,5.29688 -5.29687,5.29688zM193.33594,92.34219c-1.58906,0 -3.00156,-0.70625 -4.06094,-1.94219c-1.94219,-2.29531 -1.58906,-5.65 0.70625,-7.41563l11.47656,-9.53437c2.29531,-1.94219 5.65,-1.58906 7.41563,0.70625c1.94219,2.29531 1.58906,5.65 -0.70625,7.41563l-11.47656,9.53437c-0.88281,0.70625 -2.11875,1.23594 -3.35469,1.23594zM204.8125,140.36719c-1.23594,0 -2.47188,-0.35313 -3.35469,-1.23594l-11.47656,-9.53438c-2.29531,-1.94219 -2.47188,-5.29687 -0.70625,-7.41563c1.94219,-2.29531 5.29688,-2.47188 7.41563,-0.70625l11.47656,9.53438c2.29531,1.94219 2.47188,5.29688 0.70625,7.41563c-1.05937,1.23594 -2.47187,1.94219 -4.06094,1.94219zM185.21406,106.29063c0,-11.82969 -8.29844,-21.54063 -19.24531,-24.0125v-43.25781c0,-5.47344 -4.41406,-10.06406 -10.06406,-10.06406c-5.47344,0 -10.06406,4.41406 -10.06406,10.06406c0,15.5375 -11.12344,23.48281 -33.19375,23.48281h-57.73594c-24.18906,0 -43.7875,19.775 -43.7875,43.7875c0,24.0125 19.59844,43.61094 43.7875,43.61094c1.94219,0 3.35469,1.58906 3.35469,3.35469v37.07813c0,9.18125 7.23906,16.95 16.24375,17.30312h0.52969c4.41406,0 8.65156,-1.76562 11.82969,-4.94375c3.17813,-3.17812 4.94375,-7.41563 4.94375,-11.82969v-22.24688c9.35781,-2.11875 16.59687,-9.35781 18.71563,-18.71562h1.94219c22.07031,0 33.19375,7.94531 33.19375,23.48281c0,0.70625 0.17656,1.23594 0.35313,1.76563c0.70625,4.76719 4.76719,8.475 9.8875,8.475c5.47344,0 10.06406,-4.59062 10.06406,-10.24062v-43.08125c10.94688,-2.47187 19.24531,-12.18281 19.24531,-24.0125zM81.04219,153.25625v37.60781c0,1.58906 -0.52969,3.35469 -1.76562,4.41406c-1.23594,1.05937 -2.825,1.76563 -4.41406,1.76563h-0.17656c-3.35469,0 -6.00312,-3.17812 -6.00312,-6.70937v-37.07812c0,-1.23594 -0.17656,-2.29531 -0.35313,-3.35469h13.06562c-0.17656,1.05938 -0.35312,2.29531 -0.35312,3.35469zM91.8125,157.49375v-4.2375c0,-1.94219 1.58906,-3.35469 3.35469,-3.35469h4.2375c-1.4125,3.53125 -4.06094,6.17969 -7.59219,7.59219zM155.375,165.08594c-3.70781,-16.42031 -18.89219,-25.60156 -42.90469,-25.60156c-0.52969,0 -58.26562,0 -58.61875,0c-16.06719,-0.52969 -29.13281,-12.35937 -31.60469,-27.89687h10.41719c2.825,0 5.29688,-2.29531 5.29688,-5.29687c0,-3.00156 -2.29531,-5.29687 -5.29687,-5.29687h-10.41719c0.35312,-1.94219 0.70625,-3.88438 1.4125,-5.65h13.77187c3.00156,0 5.29688,-2.29531 5.29688,-5.29687c0,-3.00156 -2.29531,-5.29687 -5.29687,-5.29687h-7.76875c6.00312,-7.0625 15.18438,-11.65313 25.24844,-11.65313h52.43906v27.01406c0,3.00156 2.29531,5.29688 5.29688,5.29688c3.00156,0 5.29688,-2.29531 5.29688,-5.29687v-27.19063c20.65781,-1.23594 33.72344,-10.24062 37.43125,-25.24844zM165.96875,119.17969v-25.77813c5.12031,2.11875 8.65156,7.0625 8.65156,12.88906c0,5.82656 -3.53125,10.77031 -8.65156,12.88906z" fill="#464c55"></path></g></g></g></svg>