<svg xmlns="http://www.w3.org/2000/svg" x="0px" y="0px"
width="100" height="100"
viewBox="0 0 172 172"
style=" fill:#000000;"><g transform=""><g fill="none" fill-rule="nonzero" stroke="none" stroke-width="1" stroke-linecap="butt" stroke-linejoin="miter" stroke-miterlimit="10" stroke-dasharray="" stroke-dashoffset="0" font-family="none" font-weight="none" font-size="none" text-anchor="none" style="mix-blend-mode: normal"><path d="M0,172v-172h172v172z" fill="none"></path><g><circle cx="67.5" cy="20.5" transform="scale(1.72,1.72)" r="6.5" fill="#ecf0f1"></circle><path d="M104.92,116.96l1.7888,34.4h18.7824l1.7888,-34.4" fill="#ecf0f1"></path><path d="M116.1,53.32c-10.87728,0 -19.97608,7.72796 -21.74768,18.06c-0.75164,4.37912 -1.9178,12.09332 -3.08052,19.99156c-0.76024,5.17376 2.44412,9.89 7.15692,11.34684l-2.10872,14.2416h39.56l-2.11044,-14.23988c4.7128,-1.45684 7.91888,-6.17308 7.15692,-11.34684c-1.161,-7.89996 -2.32888,-15.61416 -3.08052,-19.99156c-1.76988,-10.33548 -10.86868,-18.06172 -21.74596,-18.06172" fill="#95a5a6"></path><path d="M116.1,48.16c-7.11392,0 -12.9,-5.78608 -12.9,-12.9c0,-7.11392 5.78608,-12.9 12.9,-12.9c7.11392,0 12.9,5.78608 12.9,12.9c0,7.11392 -5.78608,12.9 -12.9,12.9zM116.1,25.8c-5.21504,0 -9.46,4.24496 -9.46,9.46c0,5.21504 4.24496,9.46 9.46,9.46c5.21504,0 9.46,-4.24496 9.46,-9.46c0,-5.21504 -4.24496,-9.46 -9.46,-9.46z" fill="#334b64"></path><path d="M125.4912,153.08h-18.7824c-0.91504,0 -1.67012,-0.71724 -1.71828,-1.63056l-1.7888,-34.4l3.43656,-0.17888l1.7028,32.76944h15.51612l1.7028,-32.76944l3.43656,0.17888l-1.7888,34.4c-0.04644,0.91332 -0.80152,1.63056 -1.71656,1.63056z" fill="#334b64"></path><path d="M135.88,118.68h-39.56c-0.50052,0 -0.97524,-0.21844 -1.30204,-0.59684c-0.3268,-0.38012 -0.473,-0.88236 -0.39904,-1.376l1.90576,-12.87076c-4.87276,-2.18268 -7.75032,-7.30656 -6.95396,-12.71596c1.38976,-9.44968 2.42692,-16.19036 3.08568,-20.03112c1.93672,-11.2918 11.79748,-19.48932 23.4436,-19.48932c11.64612,0 21.50688,8.19752 23.4436,19.48932c0.65876,3.84076 1.69592,10.58144 3.08568,20.03112c0.79636,5.4094 -2.0812,10.53328 -6.95396,12.71596l1.90576,12.87076c0.07396,0.49364 -0.07224,0.99588 -0.39904,1.376c-0.3268,0.3784 -0.80152,0.59684 -1.30204,0.59684zM98.31348,115.24h35.57304l-1.81804,-12.26876c-0.12384,-0.83936 0.38356,-1.64432 1.19196,-1.89544c4.0764,-1.26076 6.58416,-5.2374 5.96496,-9.45484c-1.3846,-9.42388 -2.41832,-16.13704 -3.07192,-19.952c-1.65292,-9.63544 -10.08608,-16.62896 -20.05348,-16.62896c-9.9674,0 -18.40056,6.99352 -20.05348,16.63068c-0.6536,3.81496 -1.68732,10.5264 -3.07192,19.952c-0.6192,4.21744 1.88856,8.19408 5.96496,9.45484c0.81012,0.25112 1.31752,1.05436 1.19196,1.89544z" fill="#334b64"></path><path d="M135.00968,117.82c-0.41796,0 -0.78604,-0.30788 -0.84796,-0.73444l-6.75272,-45.58c-0.07052,-0.46956 0.25284,-0.90644 0.72412,-0.97524c0.46096,-0.07052 0.90644,0.25456 0.97524,0.72412l6.75272,45.58c0.07052,0.46956 -0.25284,0.90644 -0.72412,0.97524c-0.04128,0.00688 -0.08428,0.01032 -0.12728,0.01032z" fill="#334b64"></path><path d="M97.19032,117.82c-0.04128,0 -0.086,-0.00344 -0.12728,-0.01032c-0.46956,-0.0688 -0.79464,-0.50568 -0.72412,-0.97524l6.75272,-45.58c0.0688,-0.46784 0.52288,-0.79292 0.97524,-0.72412c0.46956,0.0688 0.79464,0.50568 0.72412,0.97524l-6.75272,45.58c-0.06192,0.42656 -0.43,0.73444 -0.84796,0.73444z" fill="#334b64"></path><path d="M116.1,151.36c-0.47472,0 -0.86,-0.38528 -0.86,-0.86v-32.68c0,-0.47472 0.38528,-0.86 0.86,-0.86c0.47472,0 0.86,0.38528 0.86,0.86v32.68c0,0.47472 -0.38528,0.86 -0.86,0.86z" fill="#334b64"></path><circle cx="32.5" cy="20.5" transform="scale(1.72,1.72)" r="6.5" fill="#ecf0f1"></circle><path d="M64.5,53.32h-17.2c-9.02484,0 -16.34,7.31516 -16.34,16.34v24.94c0,5.70008 4.61992,10.32 10.32,10.32l3.44,46.44h22.36l3.44,-46.44c5.70008,0 10.32,-4.61992 10.32,-10.32v-24.94c0,-9.02484 -7.31516,-16.34 -16.34,-16.34z" fill="#78a2d2"></path><path d="M55.9,48.16c-7.11392,0 -12.9,-5.78608 -12.9,-12.9c0,-7.11392 5.78608,-12.9 12.9,-12.9c7.11392,0 12.9,5.78608 12.9,12.9c0,7.11392 -5.78608,12.9 -12.9,12.9zM55.9,25.8c-5.21504,0 -9.46,4.24496 -9.46,9.46c0,5.21504 4.24496,9.46 9.46,9.46c5.21504,0 9.46,-4.24496 9.46,-9.46c0,-5.21504 -4.24496,-9.46 -9.46,-9.46z" fill="#334b64"></path><path d="M67.08,153.08h-22.36c-0.89956,0 -1.64948,-0.69488 -1.71484,-1.59272l-3.33164,-44.95392c-5.8824,-0.78776 -10.43352,-5.8394 -10.43352,-11.93336v-24.94c0,-9.9588 8.1012,-18.06 18.06,-18.06h17.2c9.9588,0 18.06,8.1012 18.06,18.06v24.94c0,6.09396 -4.55112,11.1456 -10.43352,11.93336l-3.33164,44.95392c-0.06536,0.89784 -0.81528,1.59272 -1.71484,1.59272zM46.31788,149.64h19.16596l3.32304,-44.84728c0.06364,-0.89784 0.81356,-1.59272 1.71312,-1.59272c4.74204,0 8.6,-3.85796 8.6,-8.6v-24.94c0,-8.06164 -6.55836,-14.62 -14.62,-14.62h-17.2c-8.06164,0 -14.62,6.55836 -14.62,14.62v24.94c0,4.74204 3.85796,8.6 8.6,8.6c0.89956,0 1.64948,0.69488 1.71484,1.59272z" fill="#334b64"></path><path d="M42.14,106.64c-0.47472,0 -0.86,-0.38528 -0.86,-0.86v-34.4c0,-0.47472 0.38528,-0.86 0.86,-0.86c0.47472,0 0.86,0.38528 0.86,0.86v34.4c0,0.47472 -0.38528,0.86 -0.86,0.86z" fill="#334b64"></path><path d="M55.9,151.36c-0.47472,0 -0.86,-0.38528 -0.86,-0.86v-44.72c0,-0.47472 0.38528,-0.86 0.86,-0.86c0.47472,0 0.86,0.38528 0.86,0.86v44.72c0,0.47472 -0.38528,0.86 -0.86,0.86z" fill="#334b64"></path><path d="M69.66,106.64c-0.47472,0 -0.86,-0.38528 -0.86,-0.86v-34.4c0,-0.47472 0.38528,-0.86 0.86,-0.86c0.47472,0 0.86,0.38528 0.86,0.86v34.4c0,0.47472 -0.38528,0.86 -0.86,0.86z" fill="#334b64"></path><circle cx="50.5" cy="46.5" transform="scale(1.72,1.72)" r="5.5" fill="#ecf0f1"></circle><path d="M70.52,105.78c0,-9.02484 7.31516,-16.34 16.34,-16.34c9.02484,0 16.34,7.31516 16.34,16.34v11.18c0,3.79948 -3.08052,6.88 -6.88,6.88l-1.72,27.52h-15.48l-1.72,-27.52c-3.79948,0 -6.88,-3.08052 -6.88,-6.88v-11.18" fill="#60be92"></path><path d="M86.86,91.16c-6.16448,0 -11.18,-5.01552 -11.18,-11.18c0,-6.16448 5.01552,-11.18 11.18,-11.18c6.16448,0 11.18,5.01552 11.18,11.18c0,6.16448 -5.01552,11.18 -11.18,11.18zM86.86,72.24c-4.26732,0 -7.74,3.47268 -7.74,7.74c0,4.26732 3.47268,7.74 7.74,7.74c4.26732,0 7.74,-3.47268 7.74,-7.74c0,-4.26732 -3.47268,-7.74 -7.74,-7.74z" fill="#334b64"></path><path d="M94.6,153.08h-15.48c-0.90816,0 -1.6598,-0.7052 -1.71656,-1.61336l-1.62884,-26.06144c-3.96804,-0.76024 -6.9746,-4.257 -6.9746,-8.4452v-11.18c0,-9.9588 8.1012,-18.06 18.06,-18.06c9.9588,0 18.06,8.1012 18.06,18.06v11.18c0,4.1882 -3.00656,7.68496 -6.9746,8.4452l-1.62884,26.06144c-0.05676,0.90816 -0.8084,1.61336 -1.71656,1.61336zM80.73508,149.64h12.24812l1.61852,-25.90836c0.05848,-0.90644 0.81012,-1.61164 1.71828,-1.61164c2.84488,0 5.16,-2.31512 5.16,-5.16v-11.18c0,-8.06164 -6.55836,-14.62 -14.62,-14.62c-8.06164,0 -14.62,6.55836 -14.62,14.62v11.18c0,2.84488 2.31512,5.16 5.16,5.16c0.90816,0 1.6598,0.7052 1.71656,1.61336z" fill="#334b64"></path><path d="M78.26,125.56c-0.47472,0 -0.86,-0.38528 -0.86,-0.86v-20.64c0,-0.47472 0.38528,-0.86 0.86,-0.86c0.47472,0 0.86,0.38528 0.86,0.86v20.64c0,0.47472 -0.38528,0.86 -0.86,0.86z" fill="#334b64"></path><path d="M95.46,125.56c-0.47472,0 -0.86,-0.38528 -0.86,-0.86v-20.64c0,-0.47472 0.38528,-0.86 0.86,-0.86c0.47472,0 0.86,0.38528 0.86,0.86v20.64c0,0.47472 -0.38528,0.86 -0.86,0.86z" fill="#334b64"></path></g></g></g></svg>