<svg xmlns="http://www.w3.org/2000/svg" x="0px" y="0px"
width="30" height="30"
viewBox="0 5 172 172"
style=" fill:#000000;"><g fill="none" fill-rule="nonzero" stroke="none" stroke-width="1" stroke-linecap="butt" stroke-linejoin="miter" stroke-miterlimit="10" stroke-dasharray="" stroke-dashoffset="0" font-family="none" font-weight="none" font-size="none" text-anchor="none" style="mix-blend-mode: normal"><path d="M0,172v-172h172v172z" fill="none"></path><g><path d="M139.75,75.25h-107.5v0c0,-29.69687 24.05313,-40.3125 53.75,-40.3125v0c29.69687,0 53.75,10.61563 53.75,40.3125z" fill="#ffdd77"></path><path d="M107.63438,37.22187c0.26875,0.26875 0.40313,0.40313 0.67188,0.67188c8.0625,10.2125 0.26875,25.2625 -12.76562,25.2625h-28.89062c-3.35938,0 -6.04688,2.6875 -6.04688,6.04688v0c0,3.35938 2.6875,6.04688 6.04688,6.04688h73.1v0c0,-22.0375 -13.16875,-33.45937 -32.11563,-38.02813z" fill="#ffa869"></path><path d="M126.3125,137.0625h-80.625c-7.39062,0 -13.4375,-6.04687 -13.4375,-13.4375v-10.75h107.5v10.75c0,7.39063 -6.04687,13.4375 -13.4375,13.4375z" fill="#ffdd77"></path><path d="M108.70938,112.875c-0.67187,6.85312 -6.45,12.09375 -13.30313,12.09375h-30.23437c-3.35937,0 -6.04687,2.6875 -6.04687,6.04688v0c0,3.35938 2.6875,6.04688 6.04688,6.04688h61.14063c7.39063,0 13.4375,-6.04687 13.4375,-13.4375v-10.75z" fill="#ffa869"></path><path d="M140.42188,112.875h-108.84375c-5.50938,0 -10.07812,-4.56875 -10.07812,-10.07812v0c0,-5.50937 4.56875,-10.07812 10.07813,-10.07812h108.84375c5.50938,0 10.07813,4.56875 10.07813,10.07813v0c0,5.50937 -4.56875,10.07813 -10.07812,10.07813z" fill="#ff697d"></path><path d="M140.42188,92.71875h-40.3125c5.50937,0 10.07813,4.56875 10.07813,10.07813c0,5.50937 -4.56875,10.07813 -10.07812,10.07813h40.3125c5.50938,0 10.07813,-4.56875 10.07813,-10.07812c0,-5.50937 -4.56875,-10.07812 -10.07812,-10.07812z" fill="#a66366"></path><path d="M32.25,75.25v13.4375h40.3125v4.03125l34.9375,18.8125l32.25,-18.8125v-4.03125v-2.6875v-10.75z" fill="#ffffff"></path><path d="M119.99688,104.275l19.75312,-11.55625v-4.03125h-23.91875c-4.56875,0 -8.33125,3.7625 -8.33125,8.33125v0c0,6.45 6.9875,10.48125 12.49688,7.25625z" fill="#ffdd77"></path><path d="M98.09375,47.03125c-2.2264,0 -4.03125,1.80485 -4.03125,4.03125c0,2.2264 1.80485,4.03125 4.03125,4.03125c2.2264,0 4.03125,-1.80485 4.03125,-4.03125c0,-2.2264 -1.80485,-4.03125 -4.03125,-4.03125zM52.40625,59.125c-2.2264,0 -4.03125,1.80485 -4.03125,4.03125c0,2.2264 1.80485,4.03125 4.03125,4.03125c2.2264,0 4.03125,-1.80485 4.03125,-4.03125c0,-2.2264 -1.80485,-4.03125 -4.03125,-4.03125zM69.875,45.6875c-2.2264,0 -4.03125,1.80485 -4.03125,4.03125c0,2.2264 1.80485,4.03125 4.03125,4.03125c2.2264,0 4.03125,-1.80485 4.03125,-4.03125c0,-2.2264 -1.80485,-4.03125 -4.03125,-4.03125z" fill="#ffffff"></path><path d="M139.75,79.28125c-2.28438,0 -4.03125,-1.74688 -4.03125,-4.03125c0,-29.96562 -27.00937,-36.28125 -49.71875,-36.28125c-22.70938,0 -49.71875,6.31563 -49.71875,36.28125c0,2.28437 -1.74688,4.03125 -4.03125,4.03125c-2.28438,0 -4.03125,-1.74688 -4.03125,-4.03125c0,-28.62187 20.55937,-44.34375 57.78125,-44.34375c37.22187,0 57.78125,15.72188 57.78125,44.34375c0,2.28437 -1.74687,4.03125 -4.03125,4.03125zM140.42188,88.6875c-0.13438,0 -0.26875,0 -0.26875,0c-0.80625,-0.13437 -1.74687,0.13437 -2.55312,0.5375l-30.23437,18.8125l-32.7875,-18.8125c-0.67187,-0.40313 -1.34375,-0.5375 -2.01562,-0.5375h-40.3125c-0.13437,0 -0.26875,0 -0.26875,0c-0.13437,0 -0.26875,0 -0.26875,0c-7.92813,0 -14.24375,6.31562 -14.24375,14.10938c0,6.58438 4.56875,12.22812 10.75,13.70625v7.12188c0,9.675 7.79375,17.46875 17.46875,17.46875h80.625c9.675,0 17.46875,-7.79375 17.46875,-17.46875v-7.12188c6.18125,-1.47812 10.75,-7.12187 10.75,-13.70625c0,-7.79375 -6.31563,-14.10937 -14.10937,-14.10937zM140.42188,108.84375c-0.13438,0 -0.26875,0 -0.26875,0c-0.13437,0 -0.26875,0 -0.26875,0c-2.28438,0 -4.03125,1.74688 -4.03125,4.03125v10.75c0,5.24062 -4.16563,9.40625 -9.40625,9.40625h-80.75937c-5.24063,0 -9.40625,-4.16563 -9.40625,-9.40625v-10.75c0,-2.28437 -1.74688,-4.03125 -4.03125,-4.03125c-0.13437,0 -0.26875,0 -0.26875,0c-0.13437,0 -0.26875,0 -0.26875,0c-3.49375,0 -6.18125,-2.6875 -6.18125,-6.04687c0,-3.35937 2.6875,-6.04687 6.04688,-6.04687c0.13438,0 0.26875,0 0.26875,0c0.13437,0 0.26875,0 0.26875,0h39.2375l33.99688,19.61875c0.67188,0.40313 1.34375,0.5375 2.01563,0.5375c0.80625,0 1.47812,-0.26875 2.15,-0.67187l31.30938,-19.48437c3.09063,0.26875 5.64375,2.82187 5.64375,6.04688c0,3.35938 -2.6875,6.04688 -6.04687,6.04688z" fill="#3f4a54"></path></g></g></svg>