<svg xmlns="http://www.w3.org/2000/svg" x="0px" y="0px"
width="64" height="64"
viewBox="0 0 172 172"
style=" fill:#000000;"><g transform="translate(16.34,16.34) scale(0.81,0.81)"><g fill="none" fill-rule="nonzero" stroke="none" stroke-width="1" stroke-linecap="butt" stroke-linejoin="miter" stroke-miterlimit="10" stroke-dasharray="" stroke-dashoffset="0" font-family="none" font-weight="none" font-size="none" text-anchor="none" style="mix-blend-mode: normal"><path d="M0,172v-172h172v172z" fill="none"></path><g><path d="M51.0625,123.77819h-21.82519c-8.72631,0 -15.79981,7.0735 -15.79981,15.79712v21.82519h53.87363v-16.125l14.49637,-64.59406c0.7955,-5.62763 -3.57437,-10.65594 -9.25575,-10.65594v0c-4.62788,0 -8.55969,3.38625 -9.245,7.96306z" fill="#85cbf8"></path><path d="M67.31113,164.09069h-53.87362c-1.4835,0 -2.6875,-1.20131 -2.6875,-2.6875v-21.82519c0,-10.19369 8.29363,-18.48731 18.48731,-18.48731h19.76388l11.6745,-43.65575c0.95406,-5.85875 5.92594,-10.09425 11.87606,-10.09425c3.48838,0 6.79937,1.51038 9.08644,4.14413c2.28706,2.63106 3.31906,6.12212 2.82994,9.57288l-14.4695,64.51612v15.82938c0,1.4835 -1.204,2.6875 -2.6875,2.6875zM16.125,158.71569h48.49863v-13.4375c0,-0.19619 0.0215,-0.39506 0.0645,-0.58856l14.49638,-64.59406c0.23112,-1.6985 -0.33863,-3.63081 -1.60444,-5.08744c-1.26581,-1.45931 -3.09869,-2.29512 -5.031,-2.29512c-3.32444,0 -6.09525,2.3865 -6.58706,5.67331c-0.01344,0.09944 -0.03494,0.19619 -0.06181,0.29563l-12.24425,45.78694c-0.31444,1.17444 -1.37869,1.99144 -2.59613,1.99144h-21.82519c-7.22937,0.00538 -13.10962,5.88562 -13.10962,13.11769z" fill="#000000"></path><path d="M26.875,153.34069c-1.4835,0 -2.6875,-1.20131 -2.6875,-2.6875v-5.375c0,-1.48619 1.204,-2.6875 2.6875,-2.6875c1.4835,0 2.6875,1.20131 2.6875,2.6875v5.375c0,1.4835 -1.204,2.6875 -2.6875,2.6875zM40.3125,153.34069c-1.4835,0 -2.6875,-1.20131 -2.6875,-2.6875v-5.375c0,-1.48619 1.204,-2.6875 2.6875,-2.6875c1.4835,0 2.6875,1.20131 2.6875,2.6875v5.375c0,1.4835 -1.204,2.6875 -2.6875,2.6875zM53.75,153.34069c-1.4835,0 -2.6875,-1.20131 -2.6875,-2.6875v-5.375c0,-1.48619 1.204,-2.6875 2.6875,-2.6875c1.4835,0 2.6875,1.20131 2.6875,2.6875v5.375c0,1.4835 -1.204,2.6875 -2.6875,2.6875z" fill="#000000"></path><path d="M120.9375,123.77819h26.875c8.86875,0 16.125,7.25625 16.125,16.125v21.5h-53.75v-16.125l-20.425,-20.06756c-0.69875,-0.92987 -1.075,-2.06131 -1.075,-3.225v-19.27206c0,-3.46956 2.21988,-6.55213 5.51206,-7.64862v0c5.22181,-1.7415 10.61294,2.14462 10.61294,7.64862v8.08669c0,1.42437 0.56706,2.79231 1.57487,3.80013z" fill="#72caaf"></path><path d="M163.9375,164.09069h-53.75c-1.4835,0 -2.6875,-1.20131 -2.6875,-2.6875v-14.99894l-19.62144,-19.27744c-0.09675,-0.09137 -0.18544,-0.1935 -0.26606,-0.301c-1.04006,-1.38675 -1.6125,-3.10406 -1.6125,-4.84019v-19.27206c0,-4.63594 2.95356,-8.73169 7.35031,-10.19638c3.31638,-1.10456 6.84775,-0.56706 9.68575,1.47812c2.838,2.0425 4.46394,5.22181 4.46394,8.71825v8.08937c0,0.6235 0.22306,1.23625 0.61812,1.71731l13.59606,8.57044h26.09831c10.37375,0 18.8125,8.44144 18.8125,18.8125v21.5c0,1.4835 -1.204,2.6875 -2.6875,2.6875zM112.875,158.71569h48.375v-18.8125c0,-7.40944 -6.02806,-13.4375 -13.4375,-13.4375h-26.875c-0.50794,0 -1.00513,-0.14513 -1.43244,-0.41388l-14.55012,-9.17513c-0.16931,-0.10481 -0.32519,-0.23112 -0.46763,-0.37356c-1.52381,-1.52381 -2.36231,-3.55019 -2.36231,-5.70019v-8.08937c0,-1.74688 -0.81431,-3.33787 -2.23062,-4.35913c-1.419,-1.02394 -3.182,-1.28731 -4.84556,-0.73906c-2.19838,0.73369 -3.67381,2.77887 -3.67381,5.09819v19.27206c0,0.52138 0.15587,1.04275 0.44075,1.47544l20.25569,19.90094c0.51331,0.50256 0.80356,1.19325 0.80356,1.91619z" fill="#000000"></path><path d="M150.5,153.34069c-1.4835,0 -2.6875,-1.20131 -2.6875,-2.6875v-5.375c0,-1.48619 1.204,-2.6875 2.6875,-2.6875c1.4835,0 2.6875,1.20131 2.6875,2.6875v5.375c0,1.4835 -1.204,2.6875 -2.6875,2.6875zM137.0625,153.34069c-1.4835,0 -2.6875,-1.20131 -2.6875,-2.6875v-5.375c0,-1.48619 1.204,-2.6875 2.6875,-2.6875c1.4835,0 2.6875,1.20131 2.6875,2.6875v5.375c0,1.4835 -1.204,2.6875 -2.6875,2.6875zM123.625,153.34069c-1.4835,0 -2.6875,-1.20131 -2.6875,-2.6875v-5.375c0,-1.48619 1.204,-2.6875 2.6875,-2.6875c1.4835,0 2.6875,1.20131 2.6875,2.6875v5.375c0,1.4835 -1.204,2.6875 -2.6875,2.6875z" fill="#000000"></path><path d="M94.17475,93.47959l10.74104,-37.62694l5.16854,1.47542l-10.74104,37.62694z" fill="#000000"></path><path d="M69.875,48.52819h5.375v21.5h-5.375z" fill="#000000"></path><path d="M92.9872,13.96463l46.78836,12.28779l-10.99143,41.85219l-46.78836,-12.28779z" fill="#ed7899"></path><path d="M128.77694,70.79681c-0.22575,0 -0.45419,-0.02956 -0.68263,-0.08869l-46.78669,-12.29262c-0.69069,-0.18006 -1.27925,-0.62619 -1.63938,-1.24431c-0.35744,-0.61544 -0.45956,-1.34912 -0.2795,-2.03712l10.99725,-41.84975c0.37894,-1.43513 1.84631,-2.29513 3.28144,-1.91619l46.78669,12.29263c0.69069,0.18006 1.27925,0.62619 1.63937,1.24431c0.35744,0.61544 0.45956,1.34913 0.2795,2.03713l-10.99725,41.84975c-0.31713,1.20669 -1.40825,2.00488 -2.59881,2.00488zM85.27169,53.9005l41.58906,10.92469l9.62931,-36.65213l-41.58906,-10.92469z" fill="#000000"></path><path d="M45.6875,10.90319h53.75v37.625h-53.75z" fill="#f283a5"></path><path d="M99.4375,51.21569h-53.75c-1.4835,0 -2.6875,-1.20131 -2.6875,-2.6875v-37.625c0,-1.48619 1.204,-2.6875 2.6875,-2.6875h53.75c1.4835,0 2.6875,1.20131 2.6875,2.6875v37.625c0,1.4835 -1.204,2.6875 -2.6875,2.6875zM48.375,45.84069h48.375v-32.25h-48.375z" fill="#000000"></path><g><path d="M134.375,80.77819c-8.90559,0 -16.125,7.21941 -16.125,16.125c0,8.90559 7.21941,16.125 16.125,16.125c8.90559,0 16.125,-7.21941 16.125,-16.125c0,-8.90559 -7.21941,-16.125 -16.125,-16.125z" fill="#faefde"></path><path d="M134.375,115.71569c-10.37375,0 -18.8125,-8.44144 -18.8125,-18.8125c0,-10.37106 8.43875,-18.8125 18.8125,-18.8125c10.37375,0 18.8125,8.44144 18.8125,18.8125c0,10.37106 -8.43875,18.8125 -18.8125,18.8125zM134.375,83.46569c-7.40944,0 -13.4375,6.02806 -13.4375,13.4375c0,7.40944 6.02806,13.4375 13.4375,13.4375c7.40944,0 13.4375,-6.02806 13.4375,-13.4375c0,-7.40944 -6.02806,-13.4375 -13.4375,-13.4375z" fill="#000000"></path></g><g><path d="M34.9375,80.77819c-8.90559,0 -16.125,7.21941 -16.125,16.125c0,8.90559 7.21941,16.125 16.125,16.125c8.90559,0 16.125,-7.21941 16.125,-16.125c0,-8.90559 -7.21941,-16.125 -16.125,-16.125z" fill="#faefde"></path><path d="M34.9375,115.71569c-10.37375,0 -18.8125,-8.44144 -18.8125,-18.8125c0,-10.37106 8.43875,-18.8125 18.8125,-18.8125c10.37375,0 18.8125,8.44144 18.8125,18.8125c0,10.37106 -8.43875,18.8125 -18.8125,18.8125zM34.9375,83.46569c-7.40944,0 -13.4375,6.02806 -13.4375,13.4375c0,7.40944 6.02806,13.4375 13.4375,13.4375c7.40944,0 13.4375,-6.02806 13.4375,-13.4375c0,-7.40944 -6.02806,-13.4375 -13.4375,-13.4375z" fill="#000000"></path></g></g></g></g></svg>