<svg xmlns="http://www.w3.org/2000/svg" x="0px" y="0px"
width="64" height="64"
viewBox="0 0 172 172"
style=" fill:#000000;"><g transform="translate(12.9,12.9) scale(0.85,0.85)"><g fill="none" fill-rule="nonzero" stroke="none" stroke-width="1" stroke-linecap="butt" stroke-linejoin="miter" stroke-miterlimit="10" stroke-dasharray="" stroke-dashoffset="0" font-family="none" font-weight="none" font-size="none" text-anchor="none" style="mix-blend-mode: normal"><path d="M0,172v-172h172v172z" fill="none" stroke="none"></path><g stroke="none"><path d="M59.125,77.9375h56.4375v16.125h-56.4375z" fill="#979faa"></path><path d="M59.125,94.0625h56.4375v-6.71875h-43v-9.40625h-13.4375z" fill="#6c717a"></path><path d="M115.5625,98.09375h-56.4375c-2.28438,0 -4.03125,-1.74688 -4.03125,-4.03125v-16.125c0,-2.28437 1.74687,-4.03125 4.03125,-4.03125h56.4375c2.28437,0 4.03125,1.74688 4.03125,4.03125v16.125c0,2.28437 -1.74688,4.03125 -4.03125,4.03125zM63.15625,90.03125h48.375v-8.0625h-48.375z" fill="#454b54"></path><path d="M49.71875,32.25c-5.24063,0 -9.40625,4.16562 -9.40625,9.40625v10.75v67.1875v9.40625c0,5.24062 4.16562,9.40625 9.40625,9.40625v0c5.24063,0 9.40625,-4.16563 9.40625,-9.40625v-87.34375c0,-5.24063 -4.16562,-9.40625 -9.40625,-9.40625z" fill="#979faa"></path><path d="M30.90625,119.59375v0c-5.24062,0 -9.40625,-4.16562 -9.40625,-9.40625v-48.375c0,-5.24063 4.16563,-9.40625 9.40625,-9.40625v0c5.24063,0 9.40625,4.16562 9.40625,9.40625v48.375c0,5.24063 -4.16562,9.40625 -9.40625,9.40625z" fill="#bfc9d5"></path><path d="M49.71875,138.40625v0c5.24063,0 9.40625,-4.16563 9.40625,-9.40625v-16.125h-18.8125v16.125c0,5.24062 4.16562,9.40625 9.40625,9.40625zM21.5,94.0625v16.125c0,5.24063 4.16563,9.40625 9.40625,9.40625v0c5.24063,0 9.40625,-4.16562 9.40625,-9.40625v-16.125z" fill="#6c717a"></path><path d="M30.90625,52.40625v0c-5.24062,0 -9.40625,4.16562 -9.40625,9.40625v9.40625h18.8125v-9.40625c0,-5.24063 -4.16562,-9.40625 -9.40625,-9.40625zM40.3125,41.65625v9.40625h18.8125v-9.40625c0,-5.24063 -4.16562,-9.40625 -9.40625,-9.40625v0c-5.24063,0 -9.40625,4.16562 -9.40625,9.40625z" fill="#ffffff"></path><path d="M17.46875,96.75c-2.28437,0 -4.03125,-1.74688 -4.03125,-4.03125v-13.4375c0,-2.28437 1.74688,-4.03125 4.03125,-4.03125c2.28438,0 4.03125,1.74688 4.03125,4.03125v13.4375c0,2.28437 -1.74687,4.03125 -4.03125,4.03125zM157.21875,96.75c-2.28438,0 -4.03125,-1.74688 -4.03125,-4.03125v-13.4375c0,-2.28437 1.74687,-4.03125 4.03125,-4.03125c2.28438,0 4.03125,1.74688 4.03125,4.03125v13.4375c0,2.28437 -1.74687,4.03125 -4.03125,4.03125z" fill="#454b54"></path><path d="M30.90625,123.625c-7.39062,0 -13.4375,-6.04687 -13.4375,-13.4375v-48.375c0,-7.39062 6.04688,-13.4375 13.4375,-13.4375c7.39063,0 13.4375,6.04688 13.4375,13.4375c0,2.28437 -1.74688,4.03125 -4.03125,4.03125c-2.28437,0 -4.03125,-1.74688 -4.03125,-4.03125c0,-2.95625 -2.41875,-5.375 -5.375,-5.375c-2.95625,0 -5.375,2.41875 -5.375,5.375v48.375c0,2.95625 2.41875,5.375 5.375,5.375c2.95625,0 5.375,-2.41875 5.375,-5.375c0,-2.28437 1.74688,-4.03125 4.03125,-4.03125c2.28437,0 4.03125,1.74688 4.03125,4.03125c0,7.39063 -6.04687,13.4375 -13.4375,13.4375z" fill="#454b54"></path><path d="M49.71875,142.4375c-7.39062,0 -13.4375,-6.04687 -13.4375,-13.4375v-43.94062c0,-2.28438 1.74688,-4.03125 4.03125,-4.03125c2.28437,0 4.03125,1.74687 4.03125,4.03125v43.94063c0,2.95625 2.41875,5.375 5.375,5.375c2.95625,0 5.375,-2.41875 5.375,-5.375v-87.34375c0,-2.95625 -2.41875,-5.375 -5.375,-5.375c-2.95625,0 -5.375,2.41875 -5.375,5.375v25.53125c0,2.28437 -1.74688,4.03125 -4.03125,4.03125c-2.28437,0 -4.03125,-1.74688 -4.03125,-4.03125v-25.53125c0,-7.39062 6.04688,-13.4375 13.4375,-13.4375c7.39063,0 13.4375,6.04688 13.4375,13.4375v87.34375c0,7.39063 -6.04687,13.4375 -13.4375,13.4375z" fill="#454b54"></path><path d="M143.78125,52.40625c-5.24062,0 -9.40625,4.16562 -9.40625,9.40625v-9.40625v-10.75c0,-5.24063 -4.16563,-9.40625 -9.40625,-9.40625c-5.24063,0 -9.40625,4.16562 -9.40625,9.40625v87.34375c0,5.24062 4.16562,9.40625 9.40625,9.40625c5.24062,0 9.40625,-4.16563 9.40625,-9.40625v-9.40625v-9.40625c0,5.24063 4.16563,9.40625 9.40625,9.40625c5.24062,0 9.40625,-4.16562 9.40625,-9.40625v-48.375c0,-5.24063 -4.16563,-9.40625 -9.40625,-9.40625z" fill="#979faa"></path><path d="M124.96875,138.40625v0c-5.24063,0 -9.40625,-4.16563 -9.40625,-9.40625v-16.125h18.8125v16.125c0,5.24062 -4.16563,9.40625 -9.40625,9.40625zM153.1875,94.0625v16.125c0,5.24063 -4.16563,9.40625 -9.40625,9.40625v0c-5.24062,0 -9.40625,-4.16562 -9.40625,-9.40625v-16.125z" fill="#6c717a"></path><path d="M143.78125,52.40625v0c5.24062,0 9.40625,4.16562 9.40625,9.40625v9.40625h-18.8125v-9.40625c0,-5.24063 4.16563,-9.40625 9.40625,-9.40625zM134.375,41.65625v9.40625h-18.8125v-9.40625c0,-5.24063 4.16562,-9.40625 9.40625,-9.40625v0c5.24062,0 9.40625,4.16562 9.40625,9.40625z" fill="#ffffff"></path><path d="M143.78125,123.625c-7.39062,0 -13.4375,-6.04687 -13.4375,-13.4375c0,-2.28437 1.74687,-4.03125 4.03125,-4.03125c2.28438,0 4.03125,1.74688 4.03125,4.03125c0,2.95625 2.41875,5.375 5.375,5.375c2.95625,0 5.375,-2.41875 5.375,-5.375v-48.375c0,-2.95625 -2.41875,-5.375 -5.375,-5.375c-2.95625,0 -5.375,2.41875 -5.375,5.375c0,2.28437 -1.74687,4.03125 -4.03125,4.03125c-2.28438,0 -4.03125,-1.74688 -4.03125,-4.03125c0,-7.39062 6.04688,-13.4375 13.4375,-13.4375c7.39063,0 13.4375,6.04688 13.4375,13.4375v48.375c0,7.39063 -6.04687,13.4375 -13.4375,13.4375z" fill="#454b54"></path><path d="M124.96875,142.4375c-7.39062,0 -13.4375,-6.04687 -13.4375,-13.4375v-87.34375c0,-7.39062 6.04688,-13.4375 13.4375,-13.4375c7.39063,0 13.4375,6.04688 13.4375,13.4375v25.53125c0,2.28437 -1.74687,4.03125 -4.03125,4.03125c-2.28438,0 -4.03125,-1.74688 -4.03125,-4.03125v-25.53125c0,-2.95625 -2.41875,-5.375 -5.375,-5.375c-2.95625,0 -5.375,2.41875 -5.375,5.375v87.34375c0,2.95625 2.41875,5.375 5.375,5.375c2.95625,0 5.375,-2.41875 5.375,-5.375v-43c0,-2.28437 1.74687,-4.03125 4.03125,-4.03125c2.28438,0 4.03125,1.74688 4.03125,4.03125v43c0,7.39063 -6.04687,13.4375 -13.4375,13.4375z" fill="#454b54"></path></g></g></g></svg>