<svg xmlns="http://www.w3.org/2000/svg" x="0px" y="0px"
width="64" height="64"
viewBox="0 0 226 226"
style=" fill:#000000;"><g transform="translate(25.99,25.99) scale(0.77,0.77)"><g fill="none" fill-rule="nonzero" stroke="none" stroke-width="1" stroke-linecap="butt" stroke-linejoin="miter" stroke-miterlimit="10" stroke-dasharray="" stroke-dashoffset="0" font-family="none" font-weight="none" font-size="none" text-anchor="none" style="mix-blend-mode: normal"><path d="M0,226v-226h226v226z" fill="none" stroke="none"></path><g stroke="none"><path d="M20.83438,171.26563l88.9875,37.43125c1.94219,0.88281 4.23573,0.88281 6.35625,0l88.9875,-37.78437c3.00156,-1.23594 4.94375,-4.23573 4.94375,-7.41563v-101.34688c0,-3.17812 -1.94219,-6.17969 -4.94375,-7.41562l-88.9875,-37.43125c-1.94219,-0.88281 -4.2375,-0.88281 -6.35625,0l-88.9875,37.78437c-3.00156,1.23594 -4.94375,4.2375 -4.94375,7.41562v101.34688c0,3.17812 1.94219,6.17969 4.94375,7.41563" fill="#f7e1c6"></path><path d="M208.55386,58.44042c-0.24542,0 -0.49614,0.0565 -0.7398,0.17833l-95.16719,40.60938v102.93594c0,2.80911 2.23528,4.83605 4.74953,4.83605c0.64622,0 1.31009,-0.13419 1.95984,-0.42198l87.48672,-36.61377c2.02694,-1.50255 3.26641,-3.92852 3.26641,-6.46748v-101.34687c0,-1.23417 -0.29309,-2.44186 -0.82631,-3.53125c-0.2207,-0.11477 -0.47142,-0.17833 -0.7292,-0.17833" fill="#c9b8a3"></path><path d="M207.10781,49.79063l-88.9875,-37.43125c-3.35469,-1.4125 -7.0625,-1.4125 -10.41719,0l-88.9875,37.78437c-4.94375,2.11875 -8.12187,7.0625 -8.12187,12.35938v101.34688c0,5.47344 3.17812,10.24062 8.12187,12.35938l89.16406,37.43125c1.58906,0.70625 3.35469,1.05937 5.12031,1.05937c1.76563,0 3.53125,-0.35313 5.29688,-1.05937l88.81094,-37.78438c4.94375,-2.11875 8.12187,-7.0625 8.12187,-12.35937v-101.34687c0,-5.47344 -3.17812,-10.24063 -8.12187,-12.35938zM111.94063,22.07031c0.35313,-0.17656 0.70625,-0.17656 1.05938,-0.17656c0.35313,0 0.70625,0 1.05937,0.17656l33.72344,14.125l-80.68906,34.42969c-0.88281,0.35313 -1.76562,0.88281 -2.47187,1.4125l-35.3125,-15.00781zM22.95313,166.49844c-1.05937,-0.52969 -1.76562,-1.58906 -1.76562,-2.64844v-98.69844l37.96094,16.06719c0,0.52969 -0.17656,1.23594 -0.17656,1.76563v10.77031c0,3.00156 2.29531,5.29688 5.29688,5.29688c3.00156,0 5.29688,-2.29531 5.29688,-5.29687v-8.12188l36.19531,15.36094c1.05938,0.52969 1.76563,1.58906 1.76563,2.64844l0.17656,98.52188zM203.04688,166.14531l-84.92656,36.01875l-0.17656,-98.52187c0,-5.47344 -3.17812,-10.24062 -8.12188,-12.35937l-32.13438,-13.59531l83.69063,-35.66562l35.84219,15.18437l-37.96094,16.59687c-2.825,1.05938 -4.06094,4.2375 -2.825,6.88594c0.88281,1.94219 2.825,3.17812 4.94375,3.17812c0.70625,0 1.4125,-0.17656 2.11875,-0.35313l41.31562,-18.3625v98.34531c0,1.23594 -0.70625,2.29531 -1.76562,2.64844z" fill="#464c55"></path></g></g></g></svg>