<svg xmlns="http://www.w3.org/2000/svg" x="0px" y="0px"
width="64" height="64"
viewBox="0 0 172 172"
style=" fill:#000000;"><g transform="translate(18.92,18.92) scale(0.78,0.78)"><g fill="none" fill-rule="nonzero" stroke="none" stroke-width="none" stroke-linecap="butt" stroke-linejoin="miter" stroke-miterlimit="10" stroke-dasharray="" stroke-dashoffset="0" font-family="none" font-weight="none" font-size="none" text-anchor="none" style="mix-blend-mode: normal"><path d="M0,172v-172h172v172z" fill="none" stroke="none" stroke-width="1"></path><g><path d="M146.46875,142.4375h-99.4375c-7.39062,0 -13.4375,-6.04687 -13.4375,-13.4375v-64.5c0,-7.39062 6.04688,-13.4375 13.4375,-13.4375h99.4375c7.39063,0 13.4375,6.04688 13.4375,13.4375v64.5c0,7.39063 -6.04687,13.4375 -13.4375,13.4375" fill="#ffffff" stroke="none" stroke-width="1"></path><path d="M158.83125,52.1375c-3.09063,-3.09062 -7.525,-5.10625 -12.3625,-5.10625h-99.4375c-4.8375,0 -9.1375,2.01563 -12.3625,5.10625c-3.09063,3.225 -5.10625,7.525 -5.10625,12.3625v64.5c0,4.8375 2.01563,9.1375 5.10625,12.3625c3.09062,3.09062 7.525,5.10625 12.3625,5.10625h99.4375c4.8375,0 9.1375,-2.01562 12.3625,-5.10625c3.09062,-3.09063 5.10625,-7.525 5.10625,-12.3625v-64.5c0,-4.8375 -2.01562,-9.1375 -5.10625,-12.3625zM155.875,129c0,2.55312 -1.075,4.97188 -2.82188,6.58437c-1.74687,1.74688 -4.03125,2.6875 -6.58437,2.82188h-99.4375c-2.55313,0 -4.97187,-1.075 -6.58438,-2.82188c-1.74687,-1.74687 -2.6875,-4.03125 -2.82187,-6.58437v-64.5c0,-2.55313 1.075,-4.97188 2.82187,-6.58438c1.74688,-1.74687 4.03125,-2.6875 6.58438,-2.82187h99.4375c2.55312,0 4.97188,1.075 6.58437,2.82187c1.74688,1.74688 2.6875,4.03125 2.82188,6.58438z" fill="#454b54" stroke="none" stroke-width="1"></path><path d="M146.46875,55.09375h-99.4375c-0.26875,0 -0.40312,0 -0.67187,0c-4.56875,0.40312 -8.33125,4.03125 -8.73437,8.73438c0,0.26875 0,0.40313 0,0.67188v64.5v0c0,0.13438 0,0.13438 0,0.26875c0,1.34375 0.40313,2.6875 0.94062,3.7625h86.40313c14.10938,0 25.53125,-11.42187 25.53125,-25.53125v-51.46562c-1.20937,-0.5375 -2.41875,-0.94063 -3.7625,-0.94063c-0.13438,0 -0.13438,0 -0.26875,0" fill="#cccccc" stroke="none" stroke-width="1"></path><path d="M124.96875,120.9375h-99.4375c-7.39062,0 -13.4375,-6.04687 -13.4375,-13.4375v-64.5c0,-7.39062 6.04688,-13.4375 13.4375,-13.4375h99.4375c7.39063,0 13.4375,6.04688 13.4375,13.4375v64.5c0,7.39063 -6.04687,13.4375 -13.4375,13.4375z" fill="#addff8" stroke="#454b54" stroke-width="8.0625"></path><path d="M63.15625,106.15625h-29.5625c-2.28438,0 -4.03125,-1.74688 -4.03125,-4.03125v0c0,-2.28437 1.74687,-4.03125 4.03125,-4.03125h29.5625c2.28437,0 4.03125,1.74688 4.03125,4.03125v0c0,2.28437 -1.74688,4.03125 -4.03125,4.03125z" fill="#454b54" stroke="none" stroke-width="1"></path><path d="M116.90625,61.8125h-43c-2.28437,0 -4.03125,-1.74687 -4.03125,-4.03125v0c0,-2.28438 1.74688,-4.03125 4.03125,-4.03125h43c2.28437,0 4.03125,1.74687 4.03125,4.03125v0c0,2.28438 -1.74688,4.03125 -4.03125,4.03125z" fill="#ffffff" stroke="none" stroke-width="1"></path><path d="M116.90625,90.03125h-10.75c-2.28437,0 -4.03125,-1.74688 -4.03125,-4.03125v0c0,-2.28437 1.74688,-4.03125 4.03125,-4.03125h10.75c2.28437,0 4.03125,1.74688 4.03125,4.03125v0c0,2.28437 -1.74688,4.03125 -4.03125,4.03125z" fill="#454b54" stroke="none" stroke-width="1"></path><path d="M51.0625,69.875h-14.78125c-3.7625,0 -6.71875,-2.95625 -6.71875,-6.71875v-9.40625c0,-3.7625 2.95625,-6.71875 6.71875,-6.71875h14.78125c3.7625,0 6.71875,2.95625 6.71875,6.71875v9.40625c0,3.7625 -2.95625,6.71875 -6.71875,6.71875z" fill="#f7f3b1" stroke="none" stroke-width="1"></path><path d="M44.34375,90.03125h-10.75c-2.28438,0 -4.03125,-1.74688 -4.03125,-4.03125v0c0,-2.28437 1.74687,-4.03125 4.03125,-4.03125h10.75c2.28438,0 4.03125,1.74688 4.03125,4.03125v0c0,2.28437 -1.74687,4.03125 -4.03125,4.03125zM92.71875,90.03125h-10.75c-2.28437,0 -4.03125,-1.74688 -4.03125,-4.03125v0c0,-2.28437 1.74688,-4.03125 4.03125,-4.03125h10.75c2.28437,0 4.03125,1.74688 4.03125,4.03125v0c0,2.28437 -1.74688,4.03125 -4.03125,4.03125zM68.53125,90.03125h-10.75c-2.28438,0 -4.03125,-1.74688 -4.03125,-4.03125v0c0,-2.28437 1.74687,-4.03125 4.03125,-4.03125h10.75c2.28437,0 4.03125,1.74688 4.03125,4.03125v0c0,2.28437 -1.74688,4.03125 -4.03125,4.03125z" fill="#454b54" stroke="none" stroke-width="1"></path></g></g></g></svg>