<svg xmlns="http://www.w3.org/2000/svg" x="0px" y="0px"
width="64" height="64"
viewBox="0 25 172 172"
style=" fill:#000000;"><g transform="translate(24.08,24.08) scale(0.72,0.72)"><g fill="none" fill-rule="nonzero" stroke="none" stroke-width="1" stroke-linecap="butt" stroke-linejoin="miter" stroke-miterlimit="10" stroke-dasharray="" stroke-dashoffset="0" font-family="none" font-weight="none" font-size="none" text-anchor="none" style="mix-blend-mode: normal"><path d="M0,172v-172h172v172z" fill="none" stroke="none"></path><g stroke="none"><path d="M116.20616,103.91353c15.49478,-2.7305 30.35263,8.08937 33.18659,24.16734c2.83397,16.07931 -7.42825,31.32684 -22.92303,34.05869c-15.49344,2.7305 -30.35263,-8.08937 -33.18659,-24.16734c-2.83397,-16.07931 7.42825,-31.32819 22.92303,-34.05869" fill="#ffffff"></path><path d="M127.79063,117.7125c-1.34375,0 -2.6875,0.67188 -3.49375,1.88125l-12.9,22.0375c-1.34375,1.87991 -0.80759,4.56741 1.075,5.91116c0.67188,0.5375 1.6125,0.80759 2.41875,0.80759c1.34375,0 2.6875,-0.67187 3.49375,-1.88125l12.9,-22.0375c1.34375,-1.87991 0.80625,-4.56741 -1.075,-5.91116c-0.67187,-0.53884 -1.6125,-0.80759 -2.41875,-0.80759" fill="#d9d9d9"></path><path d="M121.60938,166.625c-15.85625,0 -29.5625,-11.69063 -32.38437,-27.95c-3.225,-18.14063 8.6,-35.60938 26.20313,-38.7c1.88125,-0.26875 3.62812,-0.5375 5.50937,-0.5375c15.85625,0 29.5625,11.69062 32.38438,27.95c1.6125,8.86875 -0.26875,17.7375 -5.24063,24.99375c-4.97188,7.39063 -12.3625,12.22813 -20.9625,13.70625c-1.74687,0.40312 -3.62812,0.5375 -5.50937,0.5375zM120.9375,107.5c-1.34375,0 -2.6875,0.13437 -4.16562,0.40313c-13.30313,2.28437 -22.17187,15.5875 -19.61875,29.42813c2.15,12.3625 12.49687,21.23125 24.45625,21.23125c1.34375,0 2.6875,-0.13438 4.16562,-0.40312c6.45,-1.075 11.95938,-4.8375 15.72187,-10.34688c3.7625,-5.50938 5.10625,-12.3625 4.03125,-19.08125c-2.28437,-12.22812 -12.49687,-21.23125 -24.59062,-21.23125z" fill="#454b54"></path><path d="M21.76875,128.4625l31.44375,-54.69063c6.18125,-10.75 19.75313,-14.37813 30.50313,-8.19688l0.13437,0.13438c10.61563,6.18125 14.37812,19.8875 8.19688,30.50312l-31.44375,54.69063c-6.18125,10.75 -19.75312,14.37813 -30.50312,8.19822l-0.13438,-0.13572c-10.61562,-6.18125 -14.24375,-19.8875 -8.19687,-30.50312" fill="#ffffff"></path><path d="M60.7375,150.76875l15.72187,-27.14375l-38.83437,-22.44062l-15.72187,27.14375c-6.18125,10.75 -2.55312,24.45625 8.19687,30.6375c10.75,6.31563 24.45625,2.55313 30.6375,-8.19687" fill="#98bed8"></path><path d="M62.97888,75.27419c-1.45528,0 -2.85816,0.71891 -3.58512,1.99144l-15.86431,27.33053l7.08559,4.09441l15.90059,-27.39369c1.075,-1.88125 0.40313,-4.43438 -1.47813,-5.50938c-0.65306,-0.34803 -1.36122,-0.51331 -2.05862,-0.51331" fill="#ffffff"></path><path d="M43.52944,104.59616l-16.11694,27.76322c-1.075,1.88125 -0.40312,4.43437 1.47813,5.50938c0.67188,0.40447 1.34375,0.5375 2.01563,0.5375c1.47812,0 2.95625,-0.67187 3.62812,-2.01562l16.07931,-27.70006l-7.08425,-4.09441" fill="#eaf2f7"></path><path d="M41.3875,166.625c-4.56875,0 -9.1375,-1.20937 -13.16875,-3.49375l-0.13438,-0.13437c-12.63125,-7.25625 -16.93125,-23.38125 -9.675,-36.0125l31.44375,-54.69062c4.70313,-8.19688 13.4375,-13.16875 22.84375,-13.16875c4.56875,0 9.1375,1.20937 13.16875,3.49375l0.13437,0.13438c12.63125,7.25625 16.93125,23.38125 9.675,36.0125l-31.44375,54.69063c-4.8375,8.19687 -13.57187,13.16875 -22.84375,13.16875zM72.69688,67.1875c-6.58438,0 -12.63125,3.49375 -15.85625,9.1375l-31.57812,54.69063c-5.10625,8.73438 -2.01562,20.02187 6.71875,24.99375l0.13438,0.13437c2.82188,1.6125 5.9125,2.41875 9.1375,2.41875c6.58437,0 12.63125,-3.49375 15.85625,-9.1375l31.57813,-54.69062c5.10625,-8.73437 2.01563,-20.02187 -6.71875,-24.99375l-0.13438,-0.13437c-2.82187,-1.6125 -6.04687,-2.41875 -9.1375,-2.41875z" fill="#454b54"></path></g></g></g></svg>