<svg xmlns="http://www.w3.org/2000/svg" x="0px" y="0px"
width="64" height="64"
viewBox="3 07 172 172"
style=" fill:#000000;"><g transform="translate(21.5,21.5) scale(0.75,0.75)"><g fill="none" fill-rule="nonzero" stroke="none" stroke-width="1" stroke-linecap="butt" stroke-linejoin="miter" stroke-miterlimit="10" stroke-dasharray="" stroke-dashoffset="0" font-family="none" font-weight="none" font-size="none" text-anchor="none" style="mix-blend-mode: normal"><path d="M0,172v-172h172v172z" fill="none" stroke="none"></path><g stroke="none"><path d="M148.8875,39.50625l-123.35625,33.05625l-3.49375,-13.03438c-1.88125,-7.12187 2.28438,-14.5125 9.54063,-16.39375l97.2875,-26.06875c7.12188,-1.88125 14.5125,2.28437 16.39375,9.54063z" fill="#444b54"></path><path d="M147.67813,39.775l-32.7875,-18.94687l-12.63125,3.35938c0.40313,1.34375 1.20938,2.55312 2.55313,3.225l28.21875,16.25938l-24.1875,6.45l-32.92187,-18.8125l-12.49687,3.35938c0.40312,1.34375 1.20938,2.55312 2.55313,3.225l28.21875,16.25937l-24.1875,6.45l-33.05625,-18.94687l-5.375,1.47812c-2.41875,0.67188 -4.56875,2.01563 -6.31563,3.7625c0.40313,0.5375 0.94063,1.075 1.6125,1.47812l28.21875,16.25938zM153.1875,72.5625h-127.65625v80.625c0,7.39063 6.04688,13.4375 13.4375,13.4375h100.78125c7.39063,0 13.4375,-6.04687 13.4375,-13.4375z" fill="#ffffff"></path><path d="M25.53125,72.5625h127.65625v26.875h-127.65625z" fill="#444b54"></path><path d="M125.2375,99.4375l26.875,-26.875h-15.18438l-26.875,26.875h-25.12813l26.875,-26.875h-15.31875l-26.875,26.875h-24.99375l26.875,-26.875h-15.31875l-26.875,26.875h-3.7625v3.7625v1.6125v0v7.79375v40.58125c0,7.39063 6.04688,13.4375 13.4375,13.4375h100.78125c7.39063,0 13.4375,-6.04687 13.4375,-13.4375v-53.75z" fill="#ffffff"></path><path d="M152.91875,72.83125l-0.26875,-0.26875h-9.54063c3.62813,0 12.3625,2.6875 9.80937,0.26875z" fill="#ffffff"></path><path d="M139.75,170.65625h-100.78125c-9.675,0 -17.46875,-7.79375 -17.46875,-17.46875v-70.54687c0,-2.28437 1.74687,-4.03125 4.03125,-4.03125c2.28438,0 4.03125,1.74688 4.03125,4.03125v70.54688c0,5.24062 4.16562,9.40625 9.40625,9.40625h100.78125c5.24062,0 9.40625,-4.16563 9.40625,-9.40625v-76.59375h-112.875c-2.28437,0 -4.03125,-1.74688 -4.03125,-4.03125c0,-2.28437 1.74688,-4.03125 4.03125,-4.03125h116.90625c2.28438,0 4.03125,1.74688 4.03125,4.03125v80.625c0,9.675 -7.79375,17.46875 -17.46875,17.46875z" fill="#444b54"></path><g fill="#444b54"><path d="M25.53125,76.59375c-1.74687,0 -3.35937,-1.20937 -3.89687,-2.95625l-3.49375,-13.03438c-2.55313,-9.27187 3.09062,-18.94687 12.3625,-21.36562l97.42188,-26.06875c9.27188,-2.55313 18.94687,3.09063 21.36563,12.3625l3.49375,13.03437c0.26875,1.075 0.13437,2.15 -0.40313,3.09063c-0.5375,0.94062 -1.47812,1.6125 -2.41875,1.88125l-123.35625,32.92187c-0.40312,0.13438 -0.67187,0.13438 -1.075,0.13438zM132.35938,20.55938c-0.80625,0 -1.6125,0.13438 -2.41875,0.26875l-97.2875,26.20313c-4.97188,1.34375 -7.92813,6.45 -6.58438,11.55625l2.41875,9.1375l115.5625,-30.90625l-2.41875,-9.1375c-1.34375,-4.3 -5.10625,-7.12187 -9.27187,-7.12187z"></path></g><g fill="#ffffff"><path d="M25.53125,61.8125c-5.93706,0 -10.75,4.81294 -10.75,10.75c0,5.93706 4.81294,10.75 10.75,10.75c5.93706,0 10.75,-4.81294 10.75,-10.75c0,-5.93706 -4.81294,-10.75 -10.75,-10.75z"></path></g><g fill="#444b54"><path d="M25.53125,87.34375c-8.19687,0 -14.78125,-6.58437 -14.78125,-14.78125c0,-8.19688 6.58438,-14.78125 14.78125,-14.78125c8.19687,0 14.78125,6.58437 14.78125,14.78125c0,8.19688 -6.58438,14.78125 -14.78125,14.78125zM25.53125,65.84375c-3.7625,0 -6.71875,2.95625 -6.71875,6.71875c0,3.7625 2.95625,6.71875 6.71875,6.71875c3.7625,0 6.71875,-2.95625 6.71875,-6.71875c0,-3.7625 -2.95625,-6.71875 -6.71875,-6.71875z"></path></g></g></g></g></svg>