<svg xmlns="http://www.w3.org/2000/svg" x="0px" y="0px"
width="26" height="26"
viewBox="0 0 172 172"
style=" fill:#000000;"><g transform="translate(25.8,25.8) scale(0.7,0.7)"><g fill="none" fill-rule="nonzero" stroke="none" stroke-width="1" stroke-linecap="butt" stroke-linejoin="miter" stroke-miterlimit="10" stroke-dasharray="" stroke-dashoffset="0" font-family="none" font-weight="none" font-size="none" text-anchor="none" style="mix-blend-mode: normal"><path d="M0,172v-172h172v172z" fill="none" stroke="none"></path><g fill="#ffffff" stroke="none"><path d="M44.03365,26.46154c-1.91226,0 -3.64363,0.7494 -4.96154,2.06731l-10.54327,10.54327c-2.63581,2.63582 -2.63581,7.23558 0,10.54327l36.38462,36.38462l-36.38462,36.38462c-2.63581,3.30769 -2.63581,7.90746 0,10.54327l10.54327,10.54327c3.30769,2.63582 7.90746,2.63582 10.54327,0l36.38462,-36.38462l36.38462,36.38462c3.30769,2.63582 7.90746,2.63582 10.54327,0l10.54327,-10.54327c2.63582,-3.30769 2.63582,-7.90745 0,-10.54327l-36.38462,-36.38462l36.38462,-36.38462c2.63582,-3.30769 2.63582,-7.90745 0,-10.54327l-10.54327,-10.54327c-3.30769,-2.63581 -7.90745,-2.63581 -10.54327,0l-36.38462,36.38462l-36.38462,-36.38462c-1.65385,-1.31791 -3.66947,-2.06731 -5.58173,-2.06731z"></path></g></g></g></svg>