<svg xmlns="http://www.w3.org/2000/svg" x="0px" y="0px"
width="64" height="64"
viewBox="0 0 172 172"
style=" fill:#000000;"><g transform="translate(18.92,18.92) scale(0.78,0.78)"><g fill="none" fill-rule="nonzero" stroke="none" stroke-width="1" stroke-linecap="butt" stroke-linejoin="miter" stroke-miterlimit="10" stroke-dasharray="" stroke-dashoffset="0" font-family="none" font-weight="none" font-size="none" text-anchor="none" style="mix-blend-mode: normal"><path d="M0,172v-172h172v172z" fill="none" stroke="none"></path><g stroke="none"><path d="M114.21875,12.09375h-81.02812c-3.35937,0 -6.18125,2.82188 -6.18125,6.18125v135.45c0,3.35938 2.82188,6.18125 6.18125,6.18125h105.48438c3.35938,0 6.18125,-2.82187 6.18125,-6.18125v-110.85937l-30.6375,-30.77187v24.59063c0,3.35938 2.82187,6.18125 6.18125,6.18125h24.59063" fill="#f7f7fb"></path><path d="M114.35313,126.98438h-59.25937c-2.28438,0 -4.03125,-1.74688 -4.03125,-4.03125c0,-2.28437 1.74687,-4.03125 4.03125,-4.03125h59.25937c2.28438,0 4.03125,1.74688 4.03125,4.03125c0,2.28437 -1.74687,4.03125 -4.03125,4.03125zM114.35313,102.39375h-59.25937c-2.28438,0 -4.03125,-1.74687 -4.03125,-4.03125c0,-2.28437 1.74687,-4.03125 4.03125,-4.03125h59.25937c2.28438,0 4.03125,1.74688 4.03125,4.03125c0,2.28438 -1.74687,4.03125 -4.03125,4.03125zM114.35313,77.66875h-59.25937c-2.28438,0 -4.03125,-1.74688 -4.03125,-4.03125c0,-2.28438 1.74687,-4.03125 4.03125,-4.03125h59.25937c2.28438,0 4.03125,1.74687 4.03125,4.03125c0,2.28437 -1.74687,4.03125 -4.03125,4.03125z" fill="#dedfe6"></path><g fill="#464c55"><path d="M147.8125,40.04375l-30.77188,-30.77187c-0.80625,-0.67187 -2.01562,-1.20937 -3.225,-1.20937v0h-80.625c-5.64375,0 -10.2125,4.56875 -10.2125,10.2125v135.45c0,5.64375 4.56875,10.2125 10.2125,10.2125h105.61875c5.64375,0 10.2125,-4.56875 10.2125,-10.2125v-110.85937c0,-1.075 -0.5375,-2.15 -1.20937,-2.82187zM118.25,21.76875l17.06563,17.06563h-14.91563c-1.20938,0 -2.15,-0.94063 -2.15,-2.15zM140.825,153.725c0,1.20938 -0.94062,2.15 -2.15,2.15h-105.48438c-1.20937,0 -2.15,-0.94063 -2.15,-2.15v-135.45c0,-1.20937 0.94062,-2.15 2.15,-2.15h76.8625v20.55938c0,5.64375 4.56875,10.2125 10.2125,10.2125h20.55937z"></path></g></g></g></g></svg>