<svg xmlns="http://www.w3.org/2000/svg" x="0px" y="0px"
width="26" height="26"
viewBox="0 0 172 172"
style=" fill:#000000;"><g transform="translate(25.8,25.8) scale(0.7,0.7)"><g fill="none" fill-rule="nonzero" stroke="none" stroke-width="1" stroke-linecap="butt" stroke-linejoin="miter" stroke-miterlimit="10" stroke-dasharray="" stroke-dashoffset="0" font-family="none" font-weight="none" font-size="none" text-anchor="none" style="mix-blend-mode: normal"><path d="M0,172v-172h172v172z" fill="none" stroke="none"></path><g fill="#ffffff" stroke="none"><path d="M79.38462,19.84615c-3.97956,0 -6.61538,2.63582 -6.61538,6.61538v46.30769h-46.30769c-3.97956,0 -6.61538,2.63582 -6.61538,6.61538v13.23077c0,3.97957 2.63582,6.61538 6.61538,6.61538h46.30769v46.30769c0,3.97957 2.63582,6.61538 6.61538,6.61538h13.23077c3.97957,0 6.61538,-2.63581 6.61538,-6.61538v-46.30769h46.30769c3.97957,0 6.61538,-2.63581 6.61538,-6.61538v-13.23077c0,-3.97956 -2.63581,-6.61538 -6.61538,-6.61538h-46.30769v-46.30769c0,-3.97956 -2.63581,-6.61538 -6.61538,-6.61538z"></path></g></g></g></svg>