<svg xmlns="http://www.w3.org/2000/svg" x="0px" y="0px"
width="64" height="64"
viewBox="0 0 172 172"
style=" fill:#000000;"><g transform="translate(25.8,25.8) scale(0.7,0.7)"><g fill="none" fill-rule="nonzero" stroke="none" stroke-width="1" stroke-linecap="butt" stroke-linejoin="miter" stroke-miterlimit="10" stroke-dasharray="" stroke-dashoffset="0" font-family="none" font-weight="none" font-size="none" text-anchor="none" style="mix-blend-mode: normal"><path d="M0,172v-172h172v172z" fill="none" stroke="none"></path><g stroke="none"><path d="M5.375,5.375h29.5625v161.25h-29.5625z" fill="#ffffff"></path><path d="M139.75,5.375h-72.5625c-7.39062,0 -13.4375,6.04688 -13.4375,13.4375v120.9375c0,7.39063 6.04688,13.4375 13.4375,13.4375h86c7.39063,0 13.4375,-6.04687 13.4375,-13.4375v-107.5c0,-14.78125 -12.09375,-26.875 -26.875,-26.875z" fill="#adf9d2"></path><path d="M166.625,166.625h-112.875v-126.3125zM166.625,32.25h-13.4375c-7.39062,0 -13.4375,-6.04687 -13.4375,-13.4375v-13.4375v0c14.78125,0 26.875,12.09375 26.875,26.875z" fill="#ffffff"></path><path d="M166.625,143.78125c-2.28438,0 -4.03125,-1.74687 -4.03125,-4.03125v-90.03125c0,-2.28438 1.74687,-4.03125 4.03125,-4.03125v0c2.28438,0 4.03125,1.74687 4.03125,4.03125v90.03125c0,2.15 -1.74687,4.03125 -4.03125,4.03125zM170.65625,32.25c0,-0.13437 0,-0.40312 0,-0.5375c-0.13438,-8.0625 -3.35937,-15.5875 -9.00313,-21.36562c-5.9125,-5.77812 -13.57187,-9.00313 -21.90312,-9.00313v0v0v0h-72.5625c-9.675,0 -17.46875,7.79375 -17.46875,17.46875c0,2.28438 1.74687,4.03125 4.03125,4.03125c2.28438,0 4.03125,-1.74687 4.03125,-4.03125c0,-5.24062 4.16562,-9.40625 9.40625,-9.40625h68.53125v9.40625c0,9.675 7.79375,17.46875 17.46875,17.46875h12.9c0.13437,0 0.26875,0 0.5375,0v0c1.6125,0 3.09062,-1.075 3.7625,-2.41875c0.13438,-0.5375 0.26875,-1.075 0.26875,-1.6125zM143.78125,18.8125v-9.00313c4.56875,0.80625 8.73438,2.95625 12.09375,6.31563c3.35938,3.35938 5.50938,7.525 6.31563,12.09375h-9.00313c-5.24062,0 -9.40625,-4.16563 -9.40625,-9.40625z" fill="#444b54"></path><path d="M13.4375,36.28125h-8.0625c-2.28438,0 -4.03125,-1.74688 -4.03125,-4.03125c0,-2.28438 1.74687,-4.03125 4.03125,-4.03125h8.0625c2.28437,0 4.03125,1.74687 4.03125,4.03125c0,2.28437 -1.74688,4.03125 -4.03125,4.03125zM13.4375,63.15625h-8.0625c-2.28438,0 -4.03125,-1.74687 -4.03125,-4.03125c0,-2.28438 1.74687,-4.03125 4.03125,-4.03125h8.0625c2.28437,0 4.03125,1.74687 4.03125,4.03125c0,2.28438 -1.74688,4.03125 -4.03125,4.03125zM13.4375,90.03125h-8.0625c-2.28438,0 -4.03125,-1.74688 -4.03125,-4.03125c0,-2.28437 1.74687,-4.03125 4.03125,-4.03125h8.0625c2.28437,0 4.03125,1.74688 4.03125,4.03125c0,2.28437 -1.74688,4.03125 -4.03125,4.03125zM13.4375,116.90625h-8.0625c-2.28438,0 -4.03125,-1.74688 -4.03125,-4.03125c0,-2.28437 1.74687,-4.03125 4.03125,-4.03125h8.0625c2.28437,0 4.03125,1.74688 4.03125,4.03125c0,2.28437 -1.74688,4.03125 -4.03125,4.03125zM13.4375,143.78125h-8.0625c-2.28438,0 -4.03125,-1.74687 -4.03125,-4.03125c0,-2.28438 1.74687,-4.03125 4.03125,-4.03125h8.0625c2.28437,0 4.03125,1.74687 4.03125,4.03125c0,2.28438 -1.74688,4.03125 -4.03125,4.03125z" fill="#d3d8dd"></path><path d="M166.625,170.65625h-112.875c-2.28438,0 -4.03125,-1.74687 -4.03125,-4.03125v-126.3125c0,-1.6125 1.075,-3.225 2.55313,-3.7625c1.6125,-0.5375 3.35938,-0.13437 4.43437,1.075l112.875,126.3125c1.075,1.20937 1.34375,2.82188 0.67188,4.3c-0.5375,1.47812 -2.01562,2.41875 -3.62812,2.41875zM57.78125,162.59375h99.84062l-99.84062,-111.66562z" fill="#444b54"></path><path d="M106.55938,143.78125h-25.93438c-2.28437,0 -4.03125,-1.74687 -4.03125,-4.03125v-29.025c0,-1.6125 1.075,-3.225 2.55312,-3.7625c1.6125,-0.5375 3.35938,-0.13437 4.43438,1.075l25.93438,29.025c1.075,1.20937 1.34375,2.82188 0.67188,4.3c-0.5375,1.47812 -2.01562,2.41875 -3.62812,2.41875zM84.65625,135.71875h12.9l-12.9,-14.37812zM34.9375,170.65625h-29.5625c-2.28438,0 -4.03125,-1.74687 -4.03125,-4.03125v-161.25c0,-2.28438 1.74687,-4.03125 4.03125,-4.03125h29.5625c2.28437,0 4.03125,1.74687 4.03125,4.03125v161.25c0,2.28438 -1.74688,4.03125 -4.03125,4.03125zM9.40625,162.59375h21.5v-153.1875h-21.5z" fill="#444b54"></path></g></g></g></svg>