<svg xmlns="http://www.w3.org/2000/svg" x="0px" y="0px"
width="64" height="64"
viewBox="0 0 172 172"
style=" fill:#000000;"><g transform="translate(11.18,11.18) scale(0.87,0.87)"><g fill="none" fill-rule="nonzero" stroke="none" stroke-width="1" stroke-linecap="butt" stroke-linejoin="miter" stroke-miterlimit="10" stroke-dasharray="" stroke-dashoffset="0" font-family="none" font-weight="none" font-size="none" text-anchor="none" style="mix-blend-mode: normal"><path d="M0,172v-172h172v172z" fill="none" stroke="none"></path><g id="Layer_1" stroke="none"><path d="M45.92794,43.24328c-23.6141,23.61493 -23.61344,61.90162 0.00149,85.51573c23.61493,23.6141 61.90162,23.61344 85.51573,-0.00149c23.6141,-23.61493 23.61344,-61.90162 -0.00149,-85.51573c-23.61493,-23.6141 -61.90162,-23.61344 -85.51573,0.00149z" fill="#ffffff"></path><path d="M146.87187,106.15625l-11.55625,20.15625h-23.38125l-11.55625,-20.15625l11.55625,-20.15625h23.38125z" fill="#b8e4ff"></path><path d="M111.93438,126.3125l-11.55625,20.15625h-23.38125l-11.55625,-20.15625l11.55625,-20.15625h23.38125z" fill="#b8e4ff"></path><path d="M165.28125,90.03125c-2.28438,0 -4.03125,-1.74688 -4.03125,-4.03125c0,-9.40625 -1.74687,-18.54375 -5.24062,-27.14375c-0.80625,-2.01562 0.13437,-4.43437 2.28437,-5.24062c2.01563,-0.80625 4.43438,0.13437 5.24063,2.28437c3.89687,9.54062 5.77812,19.75313 5.77812,30.23437c0,2.15 -1.74687,3.89688 -4.03125,3.89688zM79.41563,106.15625h18.67812c1.47812,0 2.82187,-0.80625 3.49375,-2.01562l9.27188,-16.125c0.67188,-1.20938 0.67188,-2.82188 0,-4.03125l-9.27188,-16.125c-0.80625,-1.20937 -2.15,-2.01562 -3.62812,-2.01562h-18.54375c-1.47813,0 -2.82188,0.80625 -3.49375,2.01563l-9.27187,16.125c-0.67187,1.20937 -0.67187,2.82187 0,4.03125l9.27187,16.125c0.67188,1.20938 2.01563,2.01563 3.49375,2.01563z" fill="#444b54"></path><path d="M134.24063,40.44688c-12.49687,-12.49687 -29.69687,-19.35 -47.43437,-18.8125c-0.13437,0 -0.26875,0 -0.40312,0h-54.01875c-2.15,0 -4.16563,1.6125 -4.3,3.7625c-0.13438,2.28438 1.74688,4.3 4.03125,4.3h53.61563c0.26875,0 0.5375,0 0.67188,0h0.13437c9.675,-0.26875 18.8125,4.97188 23.65,13.4375l0.40313,0.67188c0.94062,1.075 2.28437,1.88125 3.7625,1.88125h13.84063v0c7.525,7.39063 12.63125,16.39375 15.18437,26.3375l-6.9875,11.95937c-0.67187,1.20937 -0.67187,2.82187 0,4.03125l6.9875,11.95938c-2.55312,9.94375 -7.65938,18.94687 -15.18437,26.3375v0h-13.84063c-1.47812,0 -2.82187,0.80625 -3.49375,2.01563l-0.40313,0.67188c-4.8375,8.46562 -13.975,13.70625 -23.65,13.4375h-0.13437c-0.26875,0 -0.5375,0 -0.67187,0h-58.85625c-2.15,0 -4.16563,1.6125 -4.3,3.7625c-0.13438,2.28438 1.74688,4.3 4.03125,4.3h59.52813c0.13437,0 0.26875,0 0.40312,0c17.7375,0.5375 34.9375,-6.31563 47.43438,-18.8125c12.22813,-12.22812 18.94688,-28.4875 18.94688,-45.6875c0,-17.2 -6.71875,-33.45937 -18.94688,-45.55312z" fill="#444b54"></path><path d="M24.1875,88.15c0.13438,2.15 1.88125,3.89688 4.03125,3.89688h0.13438c2.28437,-0.13437 4.03125,-1.88125 3.89687,-4.16562c-0.5375,-15.72188 5.375,-30.50313 16.39375,-41.65625c1.47812,-1.47813 1.74687,-4.03125 0.26875,-5.64375c-1.6125,-1.74688 -4.16563,-1.74688 -5.9125,-0.13438c-5.9125,5.9125 -10.61562,12.9 -13.84062,20.55938c-0.26875,0.5375 -0.67187,0.80625 -1.20937,0.80625l-22.30625,0c-2.15,0 -4.16562,1.6125 -4.3,3.7625c-0.13437,2.41875 1.74687,4.3 4.03125,4.3h19.21563c0.80625,0 1.47813,0.80625 1.34375,1.6125c-1.34375,5.375 -1.88125,11.01875 -1.74687,16.6625zM39.2375,109.1125l6.85312,-0.26875c2.15,-0.13437 4.03125,-1.74688 4.03125,-4.03125c0,-2.28437 -1.88125,-4.16562 -4.16562,-4.03125l-35.34062,1.34375c-2.28437,0.13437 -3.89687,2.01563 -3.89687,4.16562c0.13437,2.15 1.88125,3.89688 4.03125,3.89688h0.13438l16.79688,-0.67187c0.5375,0 1.075,0.26875 1.34375,0.80625c3.225,7.92813 7.92812,15.05 14.10937,21.23125c0.80625,0.80625 1.88125,1.20937 2.82188,1.20937c0.94063,0 1.88125,-0.26875 2.6875,-0.94062c1.74687,-1.6125 1.6125,-4.43438 0,-6.04688c-4.3,-4.3 -7.79375,-9.27188 -10.48125,-14.64688c-0.5375,-0.94062 0.13437,-2.01562 1.075,-2.01562z" fill="#444b54"></path><g fill="#444b54"><path d="M12.09375,21.5c-2.2264,0 -4.03125,1.80485 -4.03125,4.03125c0,2.2264 1.80485,4.03125 4.03125,4.03125c2.2264,0 4.03125,-1.80485 4.03125,-4.03125c0,-2.2264 -1.80485,-4.03125 -4.03125,-4.03125z"></path></g></g></g></g></svg>