<svg xmlns="http://www.w3.org/2000/svg" x="0px" y="0px"
width="64" height="64"
viewBox="0 0 172 172"
style=" fill:#000000;"><g transform="translate(24.08,24.08) scale(0.72,0.72)"><g fill="none" fill-rule="nonzero" stroke="none" stroke-width="1" stroke-linecap="butt" stroke-linejoin="miter" stroke-miterlimit="10" stroke-dasharray="" stroke-dashoffset="0" font-family="none" font-weight="none" font-size="none" text-anchor="none" style="mix-blend-mode: normal"><path d="M0,172v-172h172v172z" fill="none" stroke="none"></path><g id="Layer_1" stroke="none"><path d="M120.9375,166.625h-69.875c-7.39062,0 -13.4375,-6.04687 -13.4375,-13.4375v-134.375c0,-7.39062 6.04688,-13.4375 13.4375,-13.4375h69.875c7.39063,0 13.4375,6.04688 13.4375,13.4375v134.375c0,7.39063 -6.04687,13.4375 -13.4375,13.4375z" fill="#b58fa5"></path><path d="M45.6875,82.775c-2.28438,0 -4.03125,-1.74688 -4.03125,-4.03125v-59.93125c0,-5.24062 4.16562,-9.40625 9.40625,-9.40625c2.28438,0 4.03125,1.74688 4.03125,4.03125c0,2.28437 -1.74687,4.03125 -4.03125,4.03125c-0.80625,0 -1.34375,0.5375 -1.34375,1.34375v59.93125c0,2.15 -1.74687,4.03125 -4.03125,4.03125zM45.6875,134.9125c-2.28438,0 -4.03125,-1.74687 -4.03125,-4.03125v-5.64375c0,-2.28437 1.74687,-4.03125 4.03125,-4.03125c2.28438,0 4.03125,1.74688 4.03125,4.03125v5.64375c0,2.28438 -1.74687,4.03125 -4.03125,4.03125z" fill="#ffffff"></path><path d="M120.9375,1.34375h-69.875c-9.675,0 -17.46875,7.79375 -17.46875,17.46875v134.375c0,9.675 7.79375,17.46875 17.46875,17.46875h69.875c9.675,0 17.46875,-7.79375 17.46875,-17.46875v-134.375c0,-9.675 -7.79375,-17.46875 -17.46875,-17.46875zM130.34375,153.1875c0,5.24062 -4.16562,9.40625 -9.40625,9.40625h-69.875c-5.24063,0 -9.40625,-4.16563 -9.40625,-9.40625v-134.375c0,-5.24062 4.16562,-9.40625 9.40625,-9.40625h10.75v4.03125c0,2.28437 1.74687,4.03125 4.03125,4.03125h40.3125c2.28437,0 4.03125,-1.74688 4.03125,-4.03125v-4.03125h10.75c5.24063,0 9.40625,4.16563 9.40625,9.40625z" fill="#444b54"></path></g></g></g></svg>