<svg xmlns="http://www.w3.org/2000/svg" x="0px" y="0px"
width="64" height="64"
viewBox="0 0 172 172"
style=" fill:#000000;"><g transform="translate(23.22,23.22) scale(0.73,0.73)"><g fill="none" fill-rule="nonzero" stroke="none" stroke-width="1" stroke-linecap="butt" stroke-linejoin="miter" stroke-miterlimit="10" stroke-dasharray="" stroke-dashoffset="0" font-family="none" font-weight="none" font-size="none" text-anchor="none" style="mix-blend-mode: normal"><path d="M0,172v-172h172v172z" fill="none" stroke="none"></path><g stroke="none"><path d="M135.71875,154.53125h-49.71875v-24.1875h53.75v8.0625z" fill="#f2a50c"></path><path d="M135.71875,154.53125l4.03125,-16.125v-106.82812c0,-5.24062 -3.09062,-10.07812 -7.92812,-12.22812v0c-30.77188,-13.975 -60.87187,-13.975 -91.64375,-0.13438v0c-4.8375,2.28438 -7.92813,6.9875 -7.92813,12.3625l-0.13437,106.82813l4.16562,16.125z" fill="#fcca3d"></path><path d="M32.11563,134.375v4.03125l4.16562,16.125h99.4375l4.03125,-16.125v-4.03125z" fill="#676f77"></path><path d="M135.71875,154.53125l4.03125,-16.125v-106.82812c0,-5.24062 -3.09062,-10.07812 -7.92812,-12.22812v0c-15.45313,-7.12188 -29.29375,-10.48125 -45.82188,-10.48125v145.6625z" fill="#f2a50c"></path><path d="M131.82188,19.21563v0c-30.77188,-13.84062 -60.87187,-13.84062 -91.64375,0v0c-4.8375,2.28438 -7.92813,6.9875 -7.92813,12.3625v18.14063l13.4375,-6.04687c27.27813,-12.3625 53.34688,-12.3625 80.625,0l13.4375,6.04688v-18.14062c0,-5.375 -3.09062,-10.07812 -7.92812,-12.3625z" fill="#ffffff"></path><path d="M126.3125,43.67188l13.4375,6.04688v-18.14062c0,-5.24062 -3.09062,-10.07812 -7.92812,-12.22812v0c-15.45313,-7.12188 -29.29375,-10.48125 -45.82188,-10.48125v25.53125c14.64688,0 26.60625,3.09063 40.3125,9.27188z" fill="#e9eef4"></path><path d="M32.25,79.28125h14.78125c2.28438,0 4.03125,1.74688 4.03125,4.03125v1.34375c0,2.28437 -1.74687,4.03125 -4.03125,4.03125h-14.78125" fill="#444b54"></path><path d="M86,47.8375c-7.42133,0 -13.4375,6.01617 -13.4375,13.4375c0,7.42133 6.01617,13.4375 13.4375,13.4375c7.42133,0 13.4375,-6.01617 13.4375,-13.4375c0,-7.42133 -6.01617,-13.4375 -13.4375,-13.4375zM86,94.86875c-3.71066,0 -6.71875,3.00809 -6.71875,6.71875c0,3.71066 3.00809,6.71875 6.71875,6.71875c3.71066,0 6.71875,-3.00809 6.71875,-6.71875c0,-3.71066 -3.00809,-6.71875 -6.71875,-6.71875z" fill="#ffffff"></path><path d="M139.75,130.34375h-13.57187c-2.28438,0 -4.03125,-1.74687 -4.03125,-4.03125c0,-2.28437 1.74687,-4.03125 4.03125,-4.03125h13.57187c2.28438,0 4.03125,1.74688 4.03125,4.03125c0,2.28438 -1.74687,4.03125 -4.03125,4.03125zM95.40625,134.375h-18.8125c-2.28437,0 -4.03125,-1.74687 -4.03125,-4.03125c0,-2.28438 1.74688,-4.03125 4.03125,-4.03125h18.8125c2.28437,0 4.03125,1.74687 4.03125,4.03125c0,2.28438 -1.74688,4.03125 -4.03125,4.03125zM45.55313,130.34375h-13.30313c-2.28438,0 -4.03125,-1.74687 -4.03125,-4.03125c0,-2.28437 1.74687,-4.03125 4.03125,-4.03125h13.30313c2.28437,0 4.03125,1.74688 4.03125,4.03125c0,2.28438 -1.74688,4.03125 -4.03125,4.03125z" fill="#444b54"></path><path d="M140.69063,134.50938c-0.26875,-0.13438 -0.67187,-0.13438 -0.94063,-0.13438v0h-40.3125v-4.03125c2.28437,0 4.03125,-1.74687 4.03125,-4.03125c0,-2.28437 -1.74688,-4.03125 -4.03125,-4.03125h-27.00938c-2.28437,0 -4.03125,1.74688 -4.03125,4.03125c0,2.28438 1.74688,4.03125 4.03125,4.03125h0.13438v8.0625c0,2.28438 1.74688,4.03125 4.03125,4.03125h9.27187v8.0625h-46.49375l-3.225,-13.03438c-0.5375,-2.15 -2.6875,-3.49375 -4.8375,-2.95625c-2.15,0.5375 -3.49375,2.6875 -2.95625,4.8375l4.03125,16.125c0.40313,1.74687 2.01563,3.09062 3.89688,3.09062h12.09375v8.0625c0,2.28438 1.74687,4.03125 4.03125,4.03125c2.28438,0 4.03125,-1.74687 4.03125,-4.03125v-8.0625h63.15625v8.0625c0,2.28438 1.74688,4.03125 4.03125,4.03125c2.28437,0 4.03125,-1.74687 4.03125,-4.03125v-8.0625h8.0625c1.88125,0 3.49375,-1.20937 3.89687,-3.09062l4.03125,-16.125c0.5375,-2.15 -0.80625,-4.3 -2.95625,-4.8375zM139.75,79.28125h-14.78125c-2.28437,0 -4.03125,1.74688 -4.03125,4.03125v1.34375c0,2.28437 1.74688,4.03125 4.03125,4.03125h14.78125" fill="#444b54"></path><path d="M133.56875,15.5875c-10.2125,-4.56875 -20.29062,-7.79375 -30.36875,-9.40625c0.13437,-0.40312 0.26875,-0.94062 0.26875,-1.34375c0,-2.28437 -1.74687,-4.03125 -4.03125,-4.03125h-26.875c-2.28437,0 -4.03125,1.74688 -4.03125,4.03125c0,0.5375 0.13438,0.94063 0.26875,1.47812c-10.07812,1.6125 -20.15625,4.8375 -30.36875,9.40625c-6.18125,2.6875 -10.2125,9.00312 -10.2125,15.85625v94.73438c0,2.28438 1.74687,4.03125 4.03125,4.03125c2.28437,0 4.03125,-1.74687 4.03125,-4.03125v-33.59375h10.75c4.43437,0 8.0625,-3.62812 8.0625,-8.0625v-1.34375c0,-4.43438 -3.62813,-8.0625 -8.0625,-8.0625h-10.75v-22.97812l11.01875,-4.97188c26.3375,-11.95938 50.92812,-11.95938 77.26563,0l11.01875,4.97188v22.97813h-10.75c-4.43438,0 -8.0625,3.62812 -8.0625,8.0625v1.34375c0,4.43438 3.62812,8.0625 8.0625,8.0625h10.75v33.59375c0,2.28438 1.74688,4.03125 4.03125,4.03125c2.28438,0 4.03125,-1.74687 4.03125,-4.03125v-94.73437c0.13438,-6.85313 -3.89687,-13.16875 -10.07812,-15.99062zM127.925,39.90937c-28.21875,-12.76562 -55.76562,-12.76562 -83.98437,0l-7.65938,3.62813v-11.95938c0,-3.62813 2.15,-6.9875 5.50937,-8.6c13.57188,-6.04687 26.875,-9.40625 40.17813,-9.94375v7.92813c0,2.28437 1.74688,4.03125 4.03125,4.03125c2.28437,0 4.03125,-1.74688 4.03125,-4.03125v-8.0625c13.30313,0.5375 26.60625,3.89688 40.17812,9.94375c3.35938,1.47813 5.50938,4.8375 5.50938,8.6v11.95937z" fill="#444b54"></path><path d="M112.74063,122.28125c-2.2264,0 -4.03125,1.80485 -4.03125,4.03125c0,2.2264 1.80485,4.03125 4.03125,4.03125c2.2264,0 4.03125,-1.80485 4.03125,-4.03125c0,-2.2264 -1.80485,-4.03125 -4.03125,-4.03125zM58.99063,122.28125c-2.2264,0 -4.03125,1.80485 -4.03125,4.03125c0,2.2264 1.80485,4.03125 4.03125,4.03125c2.2264,0 4.03125,-1.80485 4.03125,-4.03125c0,-2.2264 -1.80485,-4.03125 -4.03125,-4.03125z" fill="#ffffff"></path><path d="M146.46875,170.65625h-110.1875c-2.28437,0 -4.03125,-1.74687 -4.03125,-4.03125c0,-2.28438 1.74688,-4.03125 4.03125,-4.03125h110.1875c2.28438,0 4.03125,1.74687 4.03125,4.03125c0,2.28438 -1.74687,4.03125 -4.03125,4.03125zM166.625,170.65625c-0.26875,0 -0.5375,0 -0.80625,-0.13438c-0.26875,0 -0.5375,-0.13437 -0.80625,-0.26875c-0.26875,-0.13438 -0.40312,-0.26875 -0.67187,-0.40313c-0.26875,-0.13437 -0.40312,-0.26875 -0.67187,-0.5375c-0.13438,-0.13438 -0.40312,-0.40312 -0.5375,-0.5375c-0.13437,-0.26875 -0.26875,-0.40313 -0.40312,-0.67187c-0.13437,-0.26875 -0.13437,-0.5375 -0.26875,-0.80625c0,-0.26875 -0.13437,-0.5375 -0.13437,-0.80625c0,-0.26875 0,-0.5375 0.13437,-0.80625c0,-0.26875 0.13438,-0.5375 0.26875,-0.80625c0.13438,-0.26875 0.26875,-0.40312 0.40312,-0.67187c0.13438,-0.26875 0.26875,-0.40312 0.5375,-0.67187c0.26875,-0.26875 0.40312,-0.40312 0.67188,-0.5375c0.26875,-0.13438 0.40312,-0.26875 0.67188,-0.40312c0.26875,-0.13438 0.5375,-0.13438 0.80625,-0.26875c0.5375,-0.13438 1.075,-0.13438 1.6125,0c0.26875,0 0.5375,0.13437 0.80625,0.26875c0.26875,0.13438 0.5375,0.26875 0.67188,0.40312c0.26875,0.13437 0.40312,0.26875 0.67188,0.5375c0.13437,0.13438 0.40312,0.40313 0.5375,0.67188c0.13438,0.26875 0.26875,0.40313 0.40312,0.67188c0.13438,0.26875 0.13438,0.5375 0.26875,0.80625c0,0.26875 0.13438,0.5375 0.13438,0.80625c0,0.26875 0,0.5375 -0.13438,0.80625c0,0.26875 -0.13437,0.5375 -0.26875,0.80625c-0.13438,0.26875 -0.26875,0.5375 -0.40312,0.67188c-0.13437,0.26875 -0.26875,0.40312 -0.5375,0.5375c-0.80625,0.94063 -1.88125,1.34375 -2.95625,1.34375z" fill="#444b54"></path></g></g></g></svg>