<svg xmlns="http://www.w3.org/2000/svg" x="0px" y="0px"
width="42" height="42"
viewBox="0 0 172 172"
style=" fill:#000000;"><defs><linearGradient x1="86" y1="14.86008" x2="86" y2="43.64142" gradientUnits="userSpaceOnUse" id="color-1_eYaVJ9Nbqqbw_gr1"><stop offset="0" stop-color="#21ad64"></stop><stop offset="0.33" stop-color="#159954"></stop><stop offset="0.713" stop-color="#0b8847"></stop><stop offset="1" stop-color="#088242"></stop></linearGradient><linearGradient x1="30.08925" y1="47.515" x2="128.16508" y2="145.59083" gradientUnits="userSpaceOnUse" id="color-2_eYaVJ9Nbqqbw_gr2"><stop offset="0" stop-color="#21ad64"></stop><stop offset="1" stop-color="#088242"></stop></linearGradient></defs><g fill="none" fill-rule="nonzero" stroke="none" stroke-width="none" stroke-linecap="none" stroke-linejoin="none" stroke-miterlimit="10" stroke-dasharray="" stroke-dashoffset="0" font-family="none" font-weight="none" font-size="none" text-anchor="none" style="mix-blend-mode: normal"><path d="M0,172v-172h172v172z" fill="none" stroke="none" stroke-width="1" stroke-linecap="butt" stroke-linejoin="miter"></path><g><path d="M86,14.33333c-14.33333,0 -14.33333,7.16667 -28.66667,7.16667c0,10.75 7.16667,7.16667 7.16667,21.5h43c0,-14.33333 7.16667,-10.75 7.16667,-21.5c-14.33333,0 -14.33333,-7.16667 -28.66667,-7.16667z" fill="url(#color-1_eYaVJ9Nbqqbw_gr1)" stroke="none" stroke-width="1" stroke-linecap="butt" stroke-linejoin="miter"></path><path d="M146.91667,111.08333c0,33.64392 -27.27275,35.83333 -60.91667,35.83333c-33.64392,0 -60.91667,-2.18942 -60.91667,-35.83333c0,-33.64392 27.27275,-71.66667 60.91667,-71.66667c33.64392,0 60.91667,38.02275 60.91667,71.66667z" fill="url(#color-2_eYaVJ9Nbqqbw_gr2)" stroke="none" stroke-width="1" stroke-linecap="butt" stroke-linejoin="miter"></path><path d="M64.5,43h43" fill="none" stroke="#8f979e" stroke-width="7.16667" stroke-linecap="round" stroke-linejoin="round"></path><path d="M103.91667,108.19158c0,-17.54758 -25.90392,-14.11833 -25.90392,-24.48492c0,-5.41083 6.0845,-5.6975 7.98725,-5.6975c4.57233,0 8.987,1.2255 12.35175,2.80575c1.06067,0.49808 2.279,-0.24008 2.279,-1.40825v-5.10625c0,-1.71283 -0.645,-2.72692 -1.67342,-3.12825c-2.30767,-0.89583 -5.61867,-1.55158 -10.51708,-1.71283v-5.61867c0,-0.67367 -0.54467,-1.21833 -1.21833,-1.21833h-2.43667c-0.67367,0 -1.21833,0.54467 -1.21833,1.21833v5.70825c-7.60383,0.73817 -15.48358,5.02742 -15.48358,15.00342c0,18.189 25.90392,14.58058 25.90392,24.15883c0,3.01 -1.92425,5.60433 -7.98725,5.60433c-6.09525,0 -11.696,-2.1285 -14.79558,-3.71233c-1.04275,-0.53392 -2.27183,0.24008 -2.27183,1.41183v5.81217c0,1.11442 0.67008,2.107 1.6985,2.54058c3.67292,1.55875 8.6,2.74125 12.93225,3.08525v6.20992c0,0.67367 0.54467,1.21833 1.21833,1.21833h2.43667c0.67367,0 1.21833,-0.54467 1.21833,-1.21833v-6.19558c11.36992,-0.946 15.48,-8.557 15.48,-15.27575z" fill="#ffffff" stroke="none" stroke-width="1" stroke-linecap="butt" stroke-linejoin="miter"></path></g></g></svg>